<svg version="1.1" viewBox="0.0 0.0 214.98162729658793 272.17847769028873" fill="none" stroke="none" stroke-linecap="square" stroke-miterlimit="10" xmlns:xlink="http://www.w3.org/1999/xlink" xmlns="http://www.w3.org/2000/svg"><clipPath id="p.0"><path d="m0 0l214.98163 0l0 272.17847l-214.98163 0l0 -272.17847z" clip-rule="nonzero"/></clipPath><g clip-path="url(#p.0)"><path fill="#000000" fill-opacity="0.0" d="m0 0l214.98163 0l0 272.17847l-214.98163 0z" fill-rule="evenodd"/><path fill="#55a6d9" d="m2.3097112 106.509186l0 0c0 -2.9571152 2.3972156 -5.354332 5.354331 -5.354332l0 0l0 0c1.4200568 0 2.7819514 0.56411743 3.7860837 1.5682526c1.0041313 1.0041275 1.5682468 2.3660202 1.5682468 3.7860794l0 157.5433c0 2.9571228 -2.397215 5.3543396 -5.3543305 5.3543396l0 0l0 0c-2.9571152 0 -5.354331 -2.3972168 -5.354331 -5.3543396z" fill-rule="evenodd"/><path fill="#55a6d9" d="m74.750656 163.64305l0 0c-2.9571152 0 -5.354332 -2.3972168 -5.354332 -5.3543396l0 0l0 0c0 -1.4200592 0.56411743 -2.781952 1.5682449 -3.786087c1.0041351 -1.0041199 2.3660278 -1.5682373 3.786087 -1.5682373l62.960632 0c2.9571075 0 5.3543243 2.3972168 5.3543243 5.3543243l0 0l0 0c0 2.9571228 -2.3972168 5.3543396 -5.3543243 5.3543396z" fill-rule="evenodd"/><path fill="#55a6d9" d="m199.90552 106.509186l0 0c0 -2.9571152 2.3972168 -5.354332 5.3543243 -5.354332l0 0l0 0c1.4200592 0 2.781952 0.56411743 3.786087 1.5682526c1.0041351 1.0041275 1.5682373 2.3660202 1.5682373 3.7860794l0 157.5433c0 2.9571228 -2.3972015 5.3543396 -5.3543243 5.3543396l0 0l0 0c-2.9571075 0 -5.3543243 -2.3972168 -5.3543243 -5.3543396z" fill-rule="evenodd"/><path fill="#55a6d9" d="m74.83465 269.40683l0 0c-2.9571152 0 -5.354332 -2.3972168 -5.354332 -5.3543396l0 0l0 0c0 -1.420044 0.56411743 -2.781952 1.5682449 -3.7860718c1.0041351 -1.0041504 2.3660278 -1.5682678 3.786087 -1.5682678l130.4252 0c2.9571228 0 5.3543243 2.3972168 5.3543243 5.3543396l0 0l0 0c0 2.9571228 -2.3972015 5.3543396 -5.3543243 5.3543396z" fill-rule="evenodd"/><path fill="#55a6d9" d="m69.39501 158.28871l0 0c0 -2.9571075 2.3972168 -5.3543243 5.354332 -5.3543243l0 0l0 0c1.4200592 0 2.781952 0.56411743 3.786087 1.5682373c1.0041275 1.0041351 1.5682449 2.3660278 1.5682449 3.786087l0 105.76378c0 2.9571228 -2.3972168 5.3543396 -5.354332 5.3543396l0 0l0 0c-2.9571152 0 -5.354332 -2.3972168 -5.354332 -5.3543396z" fill-rule="evenodd"/><path fill="#55a6d9" d="m201.0681 110.04733l0 0c2.0873718 2.0873795 5.4716797 2.0873795 7.5590515 0l0 0l0 0c1.0023956 -1.002388 1.5655365 -2.3619308 1.5655365 -3.7795258c0 -1.4175949 -0.56314087 -2.7771378 -1.5655365 -3.7795258l-98.70866 -98.708664c-2.0873795 -2.0873754 -5.4716797 -2.0873754 -7.559059 0l0 0l0 0c-2.0873718 2.0873754 -2.0873718 5.4716797 0 7.5590553z" fill-rule="evenodd"/><path fill="#55a6d9" d="m102.488045 3.7796175l0 0c2.0873795 -2.0873754 5.4716797 -2.0873754 7.559059 0l0 0l0 0c1.002388 1.002393 1.5655289 2.3619297 1.5655289 3.7795274c0 1.4175978 -0.56314087 2.777135 -1.5655289 3.7795277l-98.708664 98.708664c-2.0873756 2.0873795 -5.47168 2.0873795 -7.5590553 0l0 0l0 0c-2.0873756 -2.0873718 -2.0873756 -5.4716797 0 -7.5590515z" fill-rule="evenodd"/></g></svg>