<svg version="1.1" viewBox="0.0 0.0 724.6220472440945 443.005249343832" fill="none" stroke="none" stroke-linecap="square" stroke-miterlimit="10" xmlns:xlink="http://www.w3.org/1999/xlink" xmlns="http://www.w3.org/2000/svg"><clipPath id="p.0"><path d="m0 0l724.6221 0l0 443.00525l-724.6221 0l0 -443.00525z" clip-rule="nonzero"/></clipPath><g clip-path="url(#p.0)"><path fill="#000000" fill-opacity="0.0" d="m0 0l724.6221 0l0 443.00525l-724.6221 0z" fill-rule="evenodd"/><path fill="#000000" fill-opacity="0.0" d="m27.097113 -10.580052l715.37006 0l0 148.6614l-715.37006 0z" fill-rule="evenodd"/><path fill="#000000" d="m49.42524 96.44494l0 -52.187496l-5.875 0q-1.5625 0 -2.25 -0.59375q-0.671875 -0.59375 -0.671875 -1.59375q0 -0.984375 0.671875 -1.578125q0.6875 -0.609375 2.25 -0.609375l27.484375 0q8.1875 0 13.3125 4.71875q5.125 4.71875 5.125 11.0625q0 8.03125 -8.59375 12.968746q6.828125 2.453125 10.0 6.515625q3.1875 4.0625 3.1875 8.953125q0 4.375 -2.09375 8.0q-2.078125 3.609375 -6.375 6.171875q-4.296875 2.546875 -9.34375 2.546875l-32.703125 0q-1.5625 0 -2.25 -0.625q-0.671875 -0.625 -0.671875 -1.5625q0 -0.984375 0.671875 -1.578125q0.6875 -0.609375 2.25 -0.609375l5.875 0zm4.375 -29.46875l15.46875 0q4.953125 0 9.0625 -1.828125q3.171875 -1.4531212 4.9375 -4.218746q1.78125 -2.765625 1.78125 -5.625q0 -4.109375 -3.859375 -7.578125q-3.84375 -3.46875 -10.046875 -3.46875l-17.34375 0l0 22.718746zm0 29.46875l22.140625 0q4.21875 0 7.34375 -1.875q3.125 -1.875 4.734375 -4.625q1.609375 -2.765625 1.609375 -5.734375q0 -3.34375 -2.3125 -6.46875q-2.3125 -3.125 -6.4375 -4.734375q-4.109375 -1.609375 -11.34375 -1.609375l-15.734375 0l0 25.046875zm102.75416 -18.078125q0 10.0 -7.171875 17.09375q-7.15625 7.078125 -17.25 7.078125q-10.203117 0 -17.343742 -7.109375q-7.140625 -7.109375 -7.140625 -17.0625q0 -9.984375 7.140625 -17.093746q7.140625 -7.109375 17.343742 -7.109375q10.09375 0 17.25 7.078125q7.171875 7.078121 7.171875 17.124996zm-4.421875 0q0 -8.21875 -5.859375 -14.0q-5.859375 -5.781246 -14.203125 -5.781246q-8.328117 0 -14.187492 5.812496q-5.859375 5.796875 -5.859375 13.96875q0 8.125 5.859375 13.96875q5.859375 5.828125 14.187492 5.828125q8.34375 0 14.203125 -5.796875q5.859375 -5.8125 5.859375 -14.0zm58.42604 -19.781246q0 -1.515625 0.625 -2.1875q0.625 -0.671875 1.5625 -0.671875q0.984375 0 1.609375 0.671875q0.625 0.671875 0.625 2.296875l0 7.499996q0 1.5625 -0.625 2.234375q-0.625 0.671875 -1.609375 0.671875q-0.890625 0 -1.484375 -0.5625q-0.59375 -0.578125 -0.703125 -1.875q-0.3125 -3.1249962 -3.234375 -5.156246q-4.265625 -2.921875 -11.296875 -2.921875q-7.34375 0 -11.40625 2.96875q-3.0625 2.234375 -3.0625 4.999996q0 3.125 3.640625 5.203125q2.5 1.46875 9.46875 2.25q9.125 0.984375 12.65625 2.234375q5.0625 1.8125 7.53125 5.046875q2.46875 3.234375 2.46875 6.984375q0 5.5625 -5.359375 9.921875q-5.359375 4.34375 -15.734375 4.34375q-10.359375 0 -16.96875 -5.265625q0 1.78125 -0.21875 2.296875q-0.203125 0.515625 -0.75 0.890625q-0.546875 0.359375 -1.21875 0.359375q-0.9375 0 -1.5625 -0.671875q-0.625 -0.6875 -0.625 -2.25l0 -9.0q0 -1.5625 0.59375 -2.234375q0.609375 -0.6875 1.59375 -0.6875q0.9375 0 1.578125 0.65625q0.65625 0.640625 0.65625 1.734375q0 2.40625 1.203125 4.015625q1.828125 2.5 5.8125 4.140625q3.984375 1.640625 9.75 1.640625q8.546875 0 12.703125 -3.171875q4.171875 -3.1875 4.171875 -6.71875q0 -4.0625 -4.21875 -6.515625q-4.265625 -2.453125 -12.421875 -3.28125q-8.140625 -0.828125 -11.6875 -2.1875q-3.53125 -1.359375 -5.515625 -4.0625q-1.984375 -2.703125 -1.984375 -5.828125q0 -5.624996 5.515625 -8.921871q5.53125 -3.3125 13.1875 -3.3125q9.0625 0 14.734375 4.421875zm40.566666 -2.859375l23.750015 0q1.5625 0 2.234375 0.625q0.6875 0.625 0.6875 1.609375q0 0.9375 -0.6875 1.5625q-0.671875 0.625 -2.234375 0.625l-23.750015 0l0 29.109371q0 3.796875 3.046875 6.359375q3.0468903 2.546875 8.937515 2.546875q4.421875 0 9.578125 -1.328125q5.15625 -1.328125 8.015625 -3.0q1.046875 -0.671875 1.71875 -0.671875q0.84375 0 1.46875 0.65625q0.625 0.640625 0.625 1.53125q0 0.78125 -0.6875 1.453125q-1.65625 1.71875 -8.09375 3.734375q-6.4375 2.0 -12.3125 2.0q-7.6562653 0 -12.187515 -3.59375q-4.53125 -3.59375 -4.53125 -9.6875l0 -29.109371l-8.078125 0q-1.5625 0 -2.234375 -0.625q-0.671875 -0.625 -0.671875 -1.609375q0 -0.9375 0.671875 -1.5625q0.671875 -0.625 2.234375 -0.625l8.078125 0l0 -12.921875q0 -1.5625 0.625 -2.234375q0.625 -0.6875 1.5625 -0.6875q0.984375 0 1.609375 0.6875q0.625 0.671875 0.625 2.234375l0 12.921875zm96.660416 23.578121l-44.578125 0q1.140625 8.5 7.109375 13.6875q5.96875 5.171875 14.765625 5.171875q4.890625 0 10.25 -1.609375q5.375 -1.625 8.75 -4.28125q1.0 -0.78125 1.71875 -0.78125q0.84375 0 1.46875 0.65625q0.625 0.65625 0.625 1.53125q0 0.890625 -0.84375 1.71875q-2.5 2.609375 -8.875 4.875q-6.375 2.265625 -13.09375 2.265625q-11.25 0 -18.78125 -7.359375q-7.515625 -7.375 -7.515625 -17.84375q0 -9.53125 7.046875 -16.343746q7.0625 -6.828125 17.46875 -6.828125q10.734375 0 17.65625 7.0q6.9375 6.999996 6.828125 18.140621zm-4.421875 -4.421875q-1.3125 -7.234375 -6.859375 -11.765621q-5.546875 -4.53125 -13.203125 -4.53125q-7.640625 0 -13.171875 4.484375q-5.515625 4.468746 -6.875 11.812496l40.109375 0zm66.19165 -39.42187l0 60.98437l5.828125 0q1.609375 0 2.28125 0.609375q0.6875 0.59375 0.6875 1.578125q0 0.9375 -0.6875 1.5625q-0.671875 0.625 -2.28125 0.625l-10.265625 0l0 -8.703125q-7.59375 10.421875 -19.3125 10.421875q-5.9375 0 -11.390625 -3.140625q-5.4375 -3.15625 -8.59375 -8.984375q-3.140625 -5.84375 -3.140625 -12.046875q0 -6.234375 3.140625 -12.046875q3.15625 -5.812496 8.59375 -8.984371q5.453125 -3.171875 11.4375 -3.171875q11.453125 0 19.265625 10.406246l0 -24.687496l-5.828125 0q-1.609375 0 -2.296875 -0.625q-0.671875 -0.625 -0.671875 -1.609375q0 -0.9375 0.671875 -1.5625q0.6875 -0.625 2.296875 -0.625l10.265625 0zm-4.4375 42.906246q0 -8.328125 -5.625 -14.046875q-5.625 -5.734371 -13.375 -5.734371q-7.8125 0 -13.4375 5.734371q-5.625 5.71875 -5.625 14.046875q0 8.28125 5.625 14.046875q5.625 5.75 13.4375 5.75q7.75 0 13.375 -5.75q5.625 -5.765625 5.625 -14.046875z" fill-rule="nonzero"/><path fill="#000000" d="m27.097113 178.64305l648.7874 0l0 4.598419l-648.7874 0z" fill-rule="evenodd"/><path stroke="#000000" stroke-width="1.0" stroke-linejoin="round" stroke-linecap="butt" d="m27.097113 178.64305l648.7874 0l0 4.598419l-648.7874 0z" fill-rule="evenodd"/><path fill="#000000" fill-opacity="0.0" d="m26.31496 99.25459l715.3701 0l0 71.08661l-715.3701 0z" fill-rule="evenodd"/><path fill="#000000" d="m49.00246 124.83959l0 28.015633l4.25 0q0.625 0 0.890625 0.234375q0.265625 0.25 0.265625 0.640625q0 0.40625 -0.265625 0.640625q-0.265625 0.234375 -0.890625 0.234375l-6.0 0l0 -31.531258l6.0 0q0.625 0 0.890625 0.25q0.265625 0.25 0.265625 0.640625q0 0.375 -0.265625 0.625q-0.265625 0.25 -0.890625 0.25l-4.25 0z" fill-rule="nonzero"/><path fill="#000000" d="m72.678505 123.07397l-2.453125 11.609383q4.0 -4.125 8.5 -4.125q3.265625 0 5.375 2.109375q2.125 2.09375 2.125 5.328125q0 2.84375 -1.609375 5.703125q-1.609375 2.84375 -4.453125 4.53125q-2.84375 1.671875 -5.53125 1.671875q-4.609375 0 -6.78125 -4.125l-0.734375 3.4375l-4.093754 0q-0.59375 0 -0.796875 -0.1875q-0.203125 -0.1875 -0.203125 -0.515625q0 -0.421875 0.34375 -0.734375q0.34375 -0.3125 1.03125 -0.3125l2.3437538 0l4.796875 -22.625008l-2.328125 0q-0.59375 0 -0.796875 -0.1875q-0.203125 -0.1875 -0.203125 -0.515625q0 -0.421875 0.34375 -0.734375q0.34375 -0.328125 1.03125 -0.328125l4.09375 0zm2.296875 25.078133q1.640625 0 3.296875 -0.75q1.65625 -0.765625 3.0 -2.03125q1.359375 -1.265625 2.25 -3.109375q0.890625 -1.84375 0.890625 -3.921875q0 -2.515625 -1.765625 -4.265625q-1.765625 -1.75 -4.359375 -1.75q-2.109375 0 -4.5 1.390625q-2.390625 1.375 -3.671875 3.6875q-1.265625 2.296875 -1.265625 4.640625q0 2.59375 1.75 4.359375q1.765625 1.75 4.375 1.75zm24.11354 1.75q-3.4375 0 -5.640625 -2.171875q-2.203125 -2.1875 -2.203125 -5.53125q0 -2.734375 1.65625 -5.546875q1.671875 -2.828125 4.578125 -4.453125q2.90625 -1.640625 5.875 -1.640625q3.421875 0 5.625 2.171875q2.21875 2.15625 2.21875 5.390625q0 2.828125 -1.625 5.625q-1.609375 2.78125 -4.546875 4.46875q-2.921875 1.6875 -5.9375 1.6875zm0.390625 -1.75q2.46875 0 4.875 -1.375q2.40625 -1.390625 3.71875 -3.6875q1.328125 -2.296875 1.328125 -4.59375q0 -2.625 -1.8125 -4.390625q-1.8125 -1.78125 -4.625 -1.78125q-2.015625 0 -3.765625 0.8125q-1.734375 0.796875 -3.078125 2.0625q-1.34375 1.25 -2.21875 3.015625q-0.875 1.75 -0.875 3.625q0 2.734375 1.8125 4.53125q1.8125 1.78125 4.640625 1.78125zm25.20729 1.75q-3.4375 0 -5.640625 -2.171875q-2.203125 -2.1875 -2.203125 -5.53125q0 -2.734375 1.65625 -5.546875q1.671875 -2.828125 4.578125 -4.453125q2.90625 -1.640625 5.8749924 -1.640625q3.421875 0 5.625 2.171875q2.21875 2.15625 2.21875 5.390625q0 2.828125 -1.625 5.625q-1.609375 2.78125 -4.546875 4.46875q-2.9218674 1.6875 -5.9374924 1.6875zm0.390625 -1.75q2.46875 0 4.8749924 -1.375q2.40625 -1.390625 3.71875 -3.6875q1.328125 -2.296875 1.328125 -4.59375q0 -2.625 -1.8125 -4.390625q-1.8125 -1.78125 -4.625 -1.78125q-2.0156174 0 -3.7656174 0.8125q-1.734375 0.796875 -3.078125 2.0625q-1.34375 1.25 -2.21875 3.015625q-0.875 1.75 -0.875 3.625q0 2.734375 1.8125 4.53125q1.8125 1.78125 4.640625 1.78125zm37.191658 -12.25l-0.546875 2.5l-17.84375 0l0.53125 -2.5l17.859375 0zm23.222916 -3.578125q0.125 -0.609375 0.4375 -0.875q0.3125 -0.265625 0.6875 -0.265625q0.3125 0 0.5 0.203125q0.203125 0.1875 0.203125 0.4375q0 0.1875 -0.078125 0.546875l-0.625 3.0q-0.15625 0.625 -0.453125 0.890625q-0.296875 0.265625 -0.703125 0.265625q-0.28125 0 -0.484375 -0.1875q-0.203125 -0.1875 -0.203125 -0.4375l0.03125 -0.34375q0.015625 -0.171875 0.015625 -0.3125q0 -1.125 -1.0 -1.84375q-1.484375 -1.078125 -4.140625 -1.078125q-3.21875 0 -5.109375 1.375q-1.40625 1.015625 -1.40625 2.171875q0 1.125 1.21875 1.828125q0.890625 0.5 3.78125 0.828125q2.90625 0.3125 4.15625 0.734375q1.75 0.5625 2.59375 1.625q0.859375 1.0625 0.859375 2.390625q0 1.546875 -1.125 3.09375q-1.125 1.53125 -3.4375 2.53125q-2.3125 1.0 -5.203125 1.0q-2.0625 0 -3.640625 -0.53125q-1.578125 -0.53125 -2.6875 -1.578125q-0.171875 0.859375 -0.421875 1.109375q-0.34375 0.3125 -0.765625 0.3125q-0.296875 0 -0.5 -0.1875q-0.1875 -0.1875 -0.1875 -0.453125q0 -0.1875 0.0625 -0.53125l0.765625 -3.59375q0.125 -0.625 0.4375 -0.890625q0.3125 -0.28125 0.71875 -0.28125q0.28125 0 0.484375 0.203125q0.203125 0.1875 0.203125 0.46875q0 0.15625 -0.0625 0.46875q-0.0625 0.3125 -0.0625 0.46875q0 1.1875 1.21875 2.078125q1.625 1.1875 4.75 1.1875q3.734375 0 5.6875 -1.46875q1.953125 -1.484375 1.953125 -2.953125q0 -0.78125 -0.578125 -1.546875q-0.5625 -0.765625 -1.734375 -1.203125q-1.15625 -0.453125 -3.8125 -0.734375q-2.65625 -0.28125 -3.875 -0.703125q-1.21875 -0.4375 -1.90625 -1.296875q-0.6875 -0.875 -0.6875 -2.0q0 -1.3125 0.890625 -2.578125q0.90625 -1.265625 2.984375 -2.1875q2.09375 -0.921875 4.703125 -0.921875q1.8125 0 3.1875 0.4375q1.390625 0.4375 2.359375 1.328125zm16.535416 -1.140625l9.5 0q0.59375 0 0.796875 0.171875q0.203125 0.15625 0.203125 0.515625q0 0.375 -0.15625 0.609375q-0.140625 0.234375 -0.34375 0.34375q-0.28125 0.125 -0.875 0.125l-9.5 0l-2.484375 11.640625q-0.09375 0.5 -0.09375 0.921875q0 1.0 1.015625 1.828125q1.03125 0.8125 3.015625 0.8125q1.859375 0 4.03125 -0.515625q2.171875 -0.53125 3.46875 -1.21875q0.484375 -0.265625 0.75 -0.265625q0.296875 0 0.484375 0.203125q0.1875 0.1875 0.1875 0.53125q0 0.4375 -0.53125 0.8125q-1.265625 0.90625 -4.46875 1.65625q-2.3125 0.546875 -4.296875 0.546875q-2.609375 0 -4.03125 -1.203125q-1.421875 -1.21875 -1.421875 -2.921875q0 -0.546875 0.125 -1.1875l2.46875 -11.640625l-3.21875 0q-0.578125 0 -0.796875 -0.1875q-0.203125 -0.1875 -0.203125 -0.515625q0 -0.421875 0.34375 -0.734375q0.34375 -0.328125 1.03125 -0.328125l3.21875 0l1.109375 -5.1718826q0.125 -0.625 0.4375 -0.890625q0.3125 -0.28125 0.703125 -0.28125q0.296875 0 0.484375 0.1875q0.203125 0.1875 0.203125 0.46875q0 0.15625 -0.078125 0.515625l-1.078125 5.1718826zm36.597916 9.421875l-17.828125 0q-0.0625 0.65625 -0.0625 0.984375q0 2.859375 1.9375 4.71875q1.9375 1.84375 5.234375 1.84375q1.9375 0 4.203125 -0.625q2.28125 -0.640625 3.90625 -1.734375q0.484375 -0.3125 0.765625 -0.3125q0.28125 0 0.46875 0.203125q0.1875 0.203125 0.1875 0.515625q0 0.375 -0.34375 0.703125q-0.953125 1.015625 -3.828125 2.015625q-2.875 0.984375 -5.828125 0.984375q-3.828125 0 -6.15625 -2.265625q-2.328125 -2.28125 -2.328125 -5.78125q0 -2.3125 1.0 -4.359375q1.0 -2.046875 2.640625 -3.53125q1.640625 -1.5 3.765625 -2.453125q2.140625 -0.953125 4.65625 -0.953125q3.578125 0 5.75 2.109375q2.1875 2.09375 2.1875 5.359375q0 1.078125 -0.328125 2.578125zm-1.421875 -1.765625q0.109375 -2.875 -1.703125 -4.703125q-1.84375 -1.8125 -4.921875 -1.8125q-3.0 0 -5.609375 1.78125q-2.59375 1.765625 -3.796875 4.734375l16.03125 0zm29.801056 -15.765633l-5.1875 24.390633l2.359375 0q0.578125 0 0.78125 0.1875q0.21875 0.171875 0.21875 0.5q0 0.4375 -0.34375 0.75q-0.34375 0.3125 -1.03125 0.3125l-4.125 0l0.75 -3.484375q-3.921875 4.171875 -8.687515 4.171875q-3.15625 0 -5.25 -2.125q-2.078125 -2.125 -2.078125 -5.546875q0 -2.765625 1.671875 -5.625q1.6875 -2.859375 4.421875 -4.453125q2.75 -1.59375 5.4375 -1.59375q4.5937653 0 6.8437653 4.15625l2.078125 -9.875008l-2.328125 0q-0.59375 0 -0.8125 -0.1875q-0.21875 -0.1875 -0.21875 -0.515625q0 -0.421875 0.359375 -0.734375q0.359375 -0.328125 1.046875 -0.328125l4.09375 0zm-14.76564 25.078133q1.875 0 3.53125 -0.78125q1.6562653 -0.78125 3.0000153 -2.078125q1.34375 -1.3125 2.171875 -3.140625q0.84375 -1.828125 0.84375 -3.75q0 -2.625 -1.71875 -4.34375q-1.71875 -1.734375 -4.3281403 -1.734375q-3.6875 0 -6.609375 2.9375q-2.921875 2.9375 -2.921875 6.65625q0 2.75 1.71875 4.5q1.71875 1.734375 4.3125 1.734375z" fill-rule="nonzero"/><path fill="#000000" d="m277.66495 152.85522l0 -28.015633l-4.21875 0q-0.625 0 -0.90625 -0.25q-0.265625 -0.25 -0.265625 -0.625q0 -0.390625 0.265625 -0.640625q0.28125 -0.25 0.90625 -0.25l6.0 0l0 31.531258l-6.0 0q-0.625 0 -0.90625 -0.234375q-0.265625 -0.234375 -0.265625 -0.640625q0 -0.375 0.265625 -0.625q0.28125 -0.25 0.90625 -0.25l4.21875 0zm20.769806 -21.671875l0 2.640625q1.84375 -1.859375 3.3125 -2.5625q1.484375 -0.703125 3.328125 -0.703125q2.0 0 3.65625 0.84375q1.15625 0.625 2.109375 2.078125q0.953125 1.453125 0.953125 2.96875l0 11.015625l1.46875 0q0.625 0 0.890625 0.25q0.28125 0.234375 0.28125 0.625q0 0.375 -0.28125 0.625q-0.265625 0.25 -0.890625 0.25l-4.6875 0q-0.640625 0 -0.921875 -0.25q-0.265625 -0.25 -0.265625 -0.625q0 -0.390625 0.265625 -0.625q0.28125 -0.25 0.921875 -0.25l1.46875 0l0 -10.71875q0 -1.859375 -1.359375 -3.140625q-1.359375 -1.28125 -3.625 -1.28125q-1.734375 0 -3.0 0.703125q-1.265625 0.6875 -3.625 3.46875l0 10.96875l1.984375 0q0.625 0 0.890625 0.25q0.28125 0.234375 0.28125 0.625q0 0.375 -0.28125 0.625q-0.265625 0.25 -0.890625 0.25l-5.703125 0q-0.625 0 -0.90625 -0.25q-0.265625 -0.25 -0.265625 -0.625q0 -0.390625 0.265625 -0.625q0.28125 -0.25 0.90625 -0.25l1.96875 0l0 -14.515625l-1.46875 0q-0.625 0 -0.90625 -0.25q-0.265625 -0.25 -0.265625 -0.640625q0 -0.375 0.265625 -0.625q0.28125 -0.25 0.90625 -0.25l3.21875 0zm41.03543 9.046875q0 4.0 -2.875 6.84375q-2.859375 2.828125 -6.890625 2.828125q-4.078125 0 -6.9375 -2.84375q-2.859375 -2.84375 -2.859375 -6.828125q0 -3.984375 2.859375 -6.828125q2.859375 -2.84375 6.9375 -2.84375q4.03125 0 6.890625 2.828125q2.875 2.828125 2.875 6.84375zm-1.765625 0q0 -3.28125 -2.34375 -5.59375q-2.34375 -2.3125 -5.6875 -2.3125q-3.328125 0 -5.671875 2.328125q-2.34375 2.3125 -2.34375 5.578125q0 3.25 2.34375 5.59375q2.34375 2.328125 5.671875 2.328125q3.34375 0 5.6875 -2.3125q2.34375 -2.328125 2.34375 -5.609375zm23.56665 8.984375l0 -2.5625q-3.578125 3.25 -7.75 3.25q-2.546875 0 -3.890625 -1.390625q-1.71875 -1.84375 -1.71875 -4.28125l0 -11.28125l-2.359375 0q-0.625 0 -0.90625 -0.25q-0.265625 -0.25 -0.265625 -0.640625q0 -0.375 0.265625 -0.625q0.28125 -0.25 0.90625 -0.25l4.109375 0l0 13.046875q0 1.71875 1.078125 2.828125q1.078125 1.09375 2.703125 1.09375q4.265625 0 7.828125 -3.921875l0 -11.28125l-3.21875 0q-0.625 0 -0.90625 -0.25q-0.265625 -0.25 -0.265625 -0.640625q0 -0.375 0.265625 -0.625q0.28125 -0.25 0.90625 -0.25l4.96875 0l0 16.28125l1.484375 0q0.625 0 0.890625 0.25q0.28125 0.234375 0.28125 0.625q0 0.375 -0.28125 0.625q-0.265625 0.25 -0.890625 0.25l-3.234375 0zm13.957275 -18.03125l0 2.640625q1.84375 -1.859375 3.3125 -2.5625q1.484375 -0.703125 3.328125 -0.703125q2.0 0 3.65625 0.84375q1.15625 0.625 2.109375 2.078125q0.953125 1.453125 0.953125 2.96875l0 11.015625l1.46875 0q0.625 0 0.890625 0.25q0.28125 0.234375 0.28125 0.625q0 0.375 -0.28125 0.625q-0.265625 0.25 -0.890625 0.25l-4.6875 0q-0.640625 0 -0.921875 -0.25q-0.265625 -0.25 -0.265625 -0.625q0 -0.390625 0.265625 -0.625q0.28125 -0.25 0.921875 -0.25l1.46875 0l0 -10.71875q0 -1.859375 -1.359375 -3.140625q-1.359375 -1.28125 -3.625 -1.28125q-1.734375 0 -3.0 0.703125q-1.265625 0.6875 -3.625 3.46875l0 10.96875l1.984375 0q0.625 0 0.890625 0.25q0.28125 0.234375 0.28125 0.625q0 0.375 -0.28125 0.625q-0.265625 0.25 -0.890625 0.25l-5.703125 0q-0.625 0 -0.90625 -0.25q-0.265625 -0.25 -0.265625 -0.625q0 -0.390625 0.265625 -0.625q0.28125 -0.25 0.90625 -0.25l1.96875 0l0 -14.515625l-1.46875 0q-0.625 0 -0.90625 -0.25q-0.265625 -0.25 -0.265625 -0.640625q0 -0.375 0.265625 -0.625q0.28125 -0.25 0.90625 -0.25l3.21875 0z" fill-rule="nonzero"/><path fill="#000000" fill-opacity="0.0" d="m34.31496 192.0l636.378 0l0 140.59842l-636.378 0z" fill-rule="evenodd"/><path fill="#000000" d="m60.018085 233.0l-1.765625 0l-10.078125 -17.03125l0 15.671875l2.53125 0q0.5 0 0.703125 0.1875q0.21875 0.171875 0.21875 0.484375q0 0.296875 -0.21875 0.5q-0.203125 0.1875 -0.703125 0.1875l-5.03125 0q-0.5 0 -0.71875 -0.1875q-0.203125 -0.203125 -0.203125 -0.5q0 -0.3125 0.203125 -0.484375q0.21875 -0.1875 0.71875 -0.1875l1.140625 0l0 -16.3125l-1.84375 0q-0.484375 0 -0.703125 -0.1875q-0.203125 -0.1875 -0.203125 -0.5q0 -0.3125 0.203125 -0.5q0.21875 -0.1875 0.703125 -0.1875l3.578125 0l10.09375 17.078125l0 -15.703125l-2.515625 0q-0.5 0 -0.71875 -0.1875q-0.203125 -0.1875 -0.203125 -0.5q0 -0.3125 0.203125 -0.5q0.203125 -0.1875 0.71875 -0.1875l5.046875 0q0.484375 0 0.6875 0.1875q0.21875 0.1875 0.21875 0.5q0 0.3125 -0.21875 0.5q-0.203125 0.1875 -0.6875 0.1875l-1.15625 0l0 17.671875zm20.937641 -7.015625q0 3.125 -2.234375 5.34375q-2.234375 2.203125 -5.390625 2.203125q-3.203125 0 -5.4375 -2.21875q-2.21875 -2.21875 -2.21875 -5.328125q0 -3.125 2.21875 -5.34375q2.234375 -2.21875 5.4375 -2.21875q3.15625 0 5.390625 2.21875q2.234375 2.203125 2.234375 5.34375zm-1.390625 0q0 -2.5625 -1.828125 -4.375q-1.828125 -1.8125 -4.4375 -1.8125q-2.59375 0 -4.421875 1.828125q-1.828125 1.8125 -1.828125 4.359375q0 2.546875 1.828125 4.375q1.828125 1.8125 4.421875 1.8125q2.609375 0 4.4375 -1.8125q1.828125 -1.8125 1.828125 -4.375zm12.109512 -7.078125l0 3.453125q2.671875 -2.40625 4.0 -3.09375q1.328125 -0.703125 2.453125 -0.703125q1.21875 0 2.265625 0.828125q1.046875 0.8125 1.046875 1.234375q0 0.3125 -0.203125 0.515625q-0.203125 0.203125 -0.515625 0.203125q-0.15625 0 -0.28125 -0.046875q-0.109375 -0.0625 -0.40625 -0.375q-0.578125 -0.5625 -1.0 -0.765625q-0.421875 -0.21875 -0.828125 -0.21875q-0.890625 0 -2.15625 0.71875q-1.265625 0.703125 -4.375 3.484375l0 7.5l6.0625 0q0.5 0 0.703125 0.1875q0.21875 0.171875 0.21875 0.484375q0 0.296875 -0.21875 0.5q-0.203125 0.1875 -0.703125 0.1875l-10.734375 0q-0.484375 0 -0.703125 -0.1875q-0.203125 -0.1875 -0.203125 -0.484375q0 -0.265625 0.203125 -0.453125q0.203125 -0.1875 0.703125 -0.1875l3.3125 0l0 -11.390625l-2.53125 0q-0.484375 0 -0.703125 -0.1875q-0.203125 -0.203125 -0.203125 -0.515625q0 -0.296875 0.203125 -0.484375q0.203125 -0.203125 0.703125 -0.203125l3.890625 0zm26.359512 14.09375l-1.703125 0.015625l-3.0 -8.78125l-3.0 8.78125l-1.6875 -0.015625l-2.84375 -12.703125l-0.65625 0q-0.5 0 -0.71875 -0.1875q-0.203125 -0.203125 -0.203125 -0.515625q0 -0.296875 0.203125 -0.484375q0.21875 -0.203125 0.71875 -0.203125l3.75 0q0.484375 0 0.703125 0.203125q0.21875 0.1875 0.21875 0.5q0 0.296875 -0.21875 0.5q-0.21875 0.1875 -0.703125 0.1875l-1.734375 0l2.421875 10.828125l2.90625 -8.65625l1.640625 0l2.984375 8.65625l2.328125 -10.828125l-1.71875 0q-0.5 0 -0.71875 -0.1875q-0.21875 -0.203125 -0.21875 -0.515625q0 -0.296875 0.203125 -0.484375q0.21875 -0.203125 0.734375 -0.203125l3.734375 0q0.515625 0 0.71875 0.203125q0.21875 0.1875 0.21875 0.5q0 0.296875 -0.21875 0.5q-0.203125 0.1875 -0.71875 0.1875l-0.640625 0l-2.78125 12.703125zm22.672005 -6.71875l-13.921867 0q0.359375 2.65625 2.2187424 4.28125q1.859375 1.609375 4.609375 1.609375q1.53125 0 3.203125 -0.5q1.6875 -0.515625 2.734375 -1.34375q0.3125 -0.234375 0.546875 -0.234375q0.25 0 0.4375 0.203125q0.203125 0.203125 0.203125 0.46875q0 0.28125 -0.25 0.546875q-0.78125 0.8125 -2.78125 1.515625q-1.984375 0.703125 -4.09375 0.703125q-3.515625 0 -5.8749924 -2.296875q-2.34375 -2.296875 -2.34375 -5.578125q0 -2.96875 2.203125 -5.09375q2.2187424 -2.140625 5.4687424 -2.140625q3.34375 0 5.5 2.1875q2.171875 2.1875 2.140625 5.671875zm-1.375 -1.390625q-0.40625 -2.25 -2.140625 -3.671875q-1.734375 -1.421875 -4.125 -1.421875q-2.390625 0 -4.125 1.40625q-1.7187424 1.390625 -2.1406174 3.6875l12.531242 0zm18.578262 -3.484375l0 -2.5l3.203125 0q0.5 0 0.703125 0.203125q0.21875 0.1875 0.21875 0.5q0 0.296875 -0.21875 0.5q-0.203125 0.1875 -0.703125 0.1875l-1.828125 0l0 13.640625q0 1.375 -0.59375 2.453125q-0.390625 0.703125 -1.296875 1.46875q-0.90625 0.765625 -1.65625 1.09375q-0.75 0.328125 -2.0 0.328125l-3.875 0q-0.5 0 -0.71875 -0.1875q-0.203125 -0.1875 -0.203125 -0.5q0 -0.3125 0.203125 -0.515625q0.21875 -0.1875 0.71875 -0.1875l3.921875 0.03125q1.203125 0 2.171875 -0.625q0.96875 -0.625 1.59375 -1.8125q0.359375 -0.671875 0.359375 -1.734375l0 -4.109375q-2.1875 3.015625 -5.65625 3.015625q-2.8125 0 -4.859375 -2.09375q-2.046875 -2.09375 -2.046875 -5.03125q0 -2.953125 2.046875 -5.03125q2.046875 -2.078125 4.859375 -2.078125q3.46875 0 5.65625 2.984375zm0 4.125q0 -2.40625 -1.65625 -4.0625q-1.640625 -1.671875 -3.9375 -1.671875q-2.296875 0 -3.9375 1.671875q-1.640625 1.671875 -1.640625 4.0625q0 2.40625 1.640625 4.078125q1.640625 1.671875 3.9375 1.671875q2.296875 0 3.9375 -1.671875q1.65625 -1.671875 1.65625 -4.078125zm16.078262 -13.640625l0 3.53125l-2.015625 0l0 -3.53125l2.015625 0zm0.046875 7.015625l0 12.734375l5.375 0q0.5 0 0.703125 0.1875q0.21875 0.171875 0.21875 0.484375q0 0.296875 -0.21875 0.5q-0.203125 0.1875 -0.703125 0.1875l-12.109375 0q-0.484375 0 -0.703125 -0.1875q-0.203125 -0.203125 -0.203125 -0.5q0 -0.3125 0.203125 -0.484375q0.21875 -0.1875 0.703125 -0.1875l5.375 0l0 -11.34375l-3.984375 0q-0.5 0 -0.71875 -0.1875q-0.21875 -0.203125 -0.21875 -0.5q0 -0.3125 0.203125 -0.5q0.21875 -0.203125 0.734375 -0.203125l5.34375 0zm23.218887 14.09375l0 -1.96875q-2.984375 2.5 -6.375 2.5q-2.453125 0 -3.84375 -1.234375q-1.375 -1.25 -1.375 -3.0625q0 -1.984375 1.8125 -3.453125q1.828125 -1.484375 5.328125 -1.484375q0.953125 0 2.046875 0.125q1.109375 0.109375 2.40625 0.375l0 -2.21875q0 -1.109375 -1.046875 -1.9375q-1.046875 -0.84375 -3.125 -0.84375q-1.59375 0 -4.484375 0.9375q-0.515625 0.15625 -0.65625 0.15625q-0.265625 0 -0.453125 -0.1875q-0.1875 -0.203125 -0.1875 -0.5q0 -0.265625 0.171875 -0.4375q0.21875 -0.234375 1.828125 -0.65625q2.546875 -0.6875 3.84375 -0.6875q2.59375 0 4.03125 1.28125q1.453125 1.265625 1.453125 2.875l0 9.0625l1.828125 0q0.5 0 0.703125 0.1875q0.21875 0.171875 0.21875 0.484375q0 0.296875 -0.21875 0.5q-0.203125 0.1875 -0.703125 0.1875l-3.203125 0zm0 -6.796875q-0.96875 -0.28125 -2.046875 -0.40625q-1.0625 -0.140625 -2.25 -0.140625q-2.984375 0 -4.65625 1.296875q-1.28125 0.953125 -1.28125 2.28125q0 1.25 0.96875 2.09375q0.96875 0.84375 2.828125 0.84375q1.78125 0 3.296875 -0.703125q1.515625 -0.71875 3.140625 -2.265625l0 -3.0zm11.640762 -7.296875l0 2.0625q1.4375 -1.4375 2.59375 -1.984375q1.15625 -0.5625 2.59375 -0.5625q1.5625 0 2.859375 0.671875q0.90625 0.484375 1.640625 1.625q0.75 1.125 0.75 2.3125l0 8.609375l1.15625 0q0.484375 0 0.6875 0.1875q0.21875 0.171875 0.21875 0.484375q0 0.296875 -0.21875 0.5q-0.203125 0.1875 -0.6875 0.1875l-3.671875 0q-0.5 0 -0.71875 -0.1875q-0.203125 -0.203125 -0.203125 -0.5q0 -0.3125 0.203125 -0.484375q0.21875 -0.1875 0.71875 -0.1875l1.140625 0l0 -8.390625q0 -1.453125 -1.0625 -2.453125q-1.046875 -1.0 -2.828125 -1.0q-1.34375 0 -2.34375 0.546875q-0.984375 0.546875 -2.828125 2.71875l0 8.578125l1.546875 0q0.484375 0 0.703125 0.1875q0.21875 0.171875 0.21875 0.484375q0 0.296875 -0.21875 0.5q-0.21875 0.1875 -0.703125 0.1875l-4.453125 0q-0.484375 0 -0.703125 -0.1875q-0.21875 -0.203125 -0.21875 -0.5q0 -0.3125 0.21875 -0.484375q0.21875 -0.1875 0.703125 -0.1875l1.546875 0l0 -11.34375l-1.15625 0q-0.484375 0 -0.703125 -0.1875q-0.21875 -0.203125 -0.21875 -0.515625q0 -0.296875 0.21875 -0.484375q0.21875 -0.203125 0.703125 -0.203125l2.515625 0zm49.140915 14.09375l-1.703125 0.015625l-3.0000153 -8.78125l-3.0 8.78125l-1.6875 -0.015625l-2.84375 -12.703125l-0.65625 0q-0.5 0 -0.71875 -0.1875q-0.203125 -0.203125 -0.203125 -0.515625q0 -0.296875 0.203125 -0.484375q0.21875 -0.203125 0.71875 -0.203125l3.75 0q0.484375 0 0.703125 0.203125q0.21875 0.1875 0.21875 0.5q0 0.296875 -0.21875 0.5q-0.21875 0.1875 -0.703125 0.1875l-1.734375 0l2.421875 10.828125l2.90625 -8.65625l1.640625 0l2.9843903 8.65625l2.328125 -10.828125l-1.71875 0q-0.5 0 -0.71875 -0.1875q-0.21875 -0.203125 -0.21875 -0.515625q0 -0.296875 0.203125 -0.484375q0.21875 -0.203125 0.734375 -0.203125l3.734375 0q0.515625 0 0.71875 0.203125q0.21875 0.1875 0.21875 0.5q0 0.296875 -0.21875 0.5q-0.203125 0.1875 -0.71875 0.1875l-0.640625 0l-2.78125 12.703125zm22.921997 -7.015625q0 3.125 -2.234375 5.34375q-2.234375 2.203125 -5.390625 2.203125q-3.203125 0 -5.4375 -2.21875q-2.21875 -2.21875 -2.21875 -5.328125q0 -3.125 2.21875 -5.34375q2.234375 -2.21875 5.4375 -2.21875q3.15625 0 5.390625 2.21875q2.234375 2.203125 2.234375 5.34375zm-1.390625 0q0 -2.5625 -1.828125 -4.375q-1.828125 -1.8125 -4.4375 -1.8125q-2.59375 0 -4.421875 1.828125q-1.828125 1.8125 -1.828125 4.359375q0 2.546875 1.828125 4.375q1.828125 1.8125 4.421875 1.8125q2.609375 0 4.4375 -1.8125q1.828125 -1.8125 1.828125 -4.375zm12.109528 -7.078125l0 3.453125q2.671875 -2.40625 4.0 -3.09375q1.328125 -0.703125 2.453125 -0.703125q1.21875 0 2.265625 0.828125q1.046875 0.8125 1.046875 1.234375q0 0.3125 -0.203125 0.515625q-0.203125 0.203125 -0.515625 0.203125q-0.15625 0 -0.28125 -0.046875q-0.109375 -0.0625 -0.40625 -0.375q-0.578125 -0.5625 -1.0 -0.765625q-0.421875 -0.21875 -0.828125 -0.21875q-0.890625 0 -2.15625 0.71875q-1.265625 0.703125 -4.375 3.484375l0 7.5l6.0625 0q0.5 0 0.703125 0.1875q0.21875 0.171875 0.21875 0.484375q0 0.296875 -0.21875 0.5q-0.203125 0.1875 -0.703125 0.1875l-10.734375 0q-0.484375 0 -0.703125 -0.1875q-0.203125 -0.1875 -0.203125 -0.484375q0 -0.265625 0.203125 -0.453125q0.203125 -0.1875 0.703125 -0.1875l3.3125 0l0 -11.390625l-2.53125 0q-0.484375 0 -0.703125 -0.1875q-0.203125 -0.203125 -0.203125 -0.515625q0 -0.296875 0.203125 -0.484375q0.203125 -0.203125 0.703125 -0.203125l3.890625 0zm28.343872 -6.328125l0 19.0625l1.8125 0q0.515625 0 0.71875 0.1875q0.21875 0.171875 0.21875 0.484375q0 0.296875 -0.21875 0.5q-0.203125 0.1875 -0.71875 0.1875l-3.203125 0l0 -2.71875q-2.375 3.25 -6.03125 3.25q-1.859375 0 -3.5625 -0.984375q-1.703125 -0.984375 -2.6875 -2.796875q-0.984375 -1.828125 -0.984375 -3.765625q0 -1.953125 0.984375 -3.765625q0.984375 -1.8125 2.6875 -2.796875q1.703125 -1.0 3.578125 -1.0q3.578125 0 6.015625 3.25l0 -7.71875l-1.828125 0q-0.5 0 -0.71875 -0.1875q-0.203125 -0.203125 -0.203125 -0.5q0 -0.296875 0.203125 -0.484375q0.21875 -0.203125 0.71875 -0.203125l3.21875 0zm-1.390625 13.40625q0 -2.609375 -1.765625 -4.390625q-1.75 -1.796875 -4.171875 -1.796875q-2.4375 0 -4.203125 1.796875q-1.75 1.78125 -1.75 4.390625q0 2.59375 1.75 4.390625q1.765625 1.796875 4.203125 1.796875q2.421875 0 4.171875 -1.796875q1.765625 -1.796875 1.765625 -4.390625zm31.875244 -7.078125l7.421875 0q0.5 0 0.703125 0.203125q0.21875 0.1875 0.21875 0.5q0 0.296875 -0.21875 0.5q-0.203125 0.1875 -0.703125 0.1875l-7.421875 0l0 9.09375q0 1.1875 0.953125 1.984375q0.953125 0.796875 2.796875 0.796875q1.375 0 2.984375 -0.40625q1.625 -0.421875 2.515625 -0.953125q0.328125 -0.203125 0.53125 -0.203125q0.265625 0 0.453125 0.203125q0.203125 0.203125 0.203125 0.484375q0 0.234375 -0.21875 0.453125q-0.515625 0.53125 -2.53125 1.15625q-2.0 0.625 -3.84375 0.625q-2.390625 0 -3.8125 -1.109375q-1.40625 -1.125 -1.40625 -3.03125l0 -9.09375l-2.53125 0q-0.484375 0 -0.703125 -0.1875q-0.203125 -0.203125 -0.203125 -0.515625q0 -0.296875 0.203125 -0.484375q0.21875 -0.203125 0.703125 -0.203125l2.53125 0l0 -4.03125q0 -0.484375 0.1875 -0.703125q0.203125 -0.21875 0.5 -0.21875q0.296875 0 0.484375 0.21875q0.203125 0.21875 0.203125 0.703125l0 4.03125zm21.171997 0l0 3.453125q2.671875 -2.40625 4.0 -3.09375q1.328125 -0.703125 2.453125 -0.703125q1.21875 0 2.265625 0.828125q1.046875 0.8125 1.046875 1.234375q0 0.3125 -0.203125 0.515625q-0.203125 0.203125 -0.515625 0.203125q-0.15625 0 -0.28125 -0.046875q-0.109375 -0.0625 -0.40625 -0.375q-0.578125 -0.5625 -1.0 -0.765625q-0.421875 -0.21875 -0.828125 -0.21875q-0.890625 0 -2.15625 0.71875q-1.265625 0.703125 -4.375 3.484375l0 7.5l6.0625 0q0.5 0 0.703125 0.1875q0.21875 0.171875 0.21875 0.484375q0 0.296875 -0.21875 0.5q-0.203125 0.1875 -0.703125 0.1875l-10.734375 0q-0.484375 0 -0.703125 -0.1875q-0.203125 -0.1875 -0.203125 -0.484375q0 -0.265625 0.203125 -0.453125q0.203125 -0.1875 0.703125 -0.1875l3.3125 0l0 -11.390625l-2.53125 0q-0.484375 0 -0.703125 -0.1875q-0.203125 -0.203125 -0.203125 -0.515625q0 -0.296875 0.203125 -0.484375q0.203125 -0.203125 0.703125 -0.203125l3.890625 0zm25.578247 14.09375l0 -1.96875q-2.984375 2.5 -6.375 2.5q-2.453125 0 -3.84375 -1.234375q-1.375 -1.25 -1.375 -3.0625q0 -1.984375 1.8125 -3.453125q1.828125 -1.484375 5.328125 -1.484375q0.953125 0 2.046875 0.125q1.109375 0.109375 2.40625 0.375l0 -2.21875q0 -1.109375 -1.046875 -1.9375q-1.046875 -0.84375 -3.125 -0.84375q-1.59375 0 -4.484375 0.9375q-0.515625 0.15625 -0.65625 0.15625q-0.265625 0 -0.453125 -0.1875q-0.1875 -0.203125 -0.1875 -0.5q0 -0.265625 0.171875 -0.4375q0.21875 -0.234375 1.828125 -0.65625q2.546875 -0.6875 3.84375 -0.6875q2.59375 0 4.03125 1.28125q1.453125 1.265625 1.453125 2.875l0 9.0625l1.828125 0q0.5 0 0.703125 0.1875q0.21875 0.171875 0.21875 0.484375q0 0.296875 -0.21875 0.5q-0.203125 0.1875 -0.703125 0.1875l-3.203125 0zm0 -6.796875q-0.96875 -0.28125 -2.046875 -0.40625q-1.0625 -0.140625 -2.25 -0.140625q-2.984375 0 -4.65625 1.296875q-1.28125 0.953125 -1.28125 2.28125q0 1.25 0.96875 2.09375q0.96875 0.84375 2.828125 0.84375q1.78125 0 3.296875 -0.703125q1.515625 -0.71875 3.140625 -2.265625l0 -3.0zm11.640747 -7.296875l0 2.0625q1.4375 -1.4375 2.59375 -1.984375q1.15625 -0.5625 2.59375 -0.5625q1.5625 0 2.859375 0.671875q0.90625 0.484375 1.640625 1.625q0.75 1.125 0.75 2.3125l0 8.609375l1.15625 0q0.484375 0 0.6875 0.1875q0.21875 0.171875 0.21875 0.484375q0 0.296875 -0.21875 0.5q-0.203125 0.1875 -0.6875 0.1875l-3.671875 0q-0.5 0 -0.71875 -0.1875q-0.203125 -0.203125 -0.203125 -0.5q0 -0.3125 0.203125 -0.484375q0.21875 -0.1875 0.71875 -0.1875l1.140625 0l0 -8.390625q0 -1.453125 -1.0625 -2.453125q-1.046875 -1.0 -2.828125 -1.0q-1.34375 0 -2.34375 0.546875q-0.984375 0.546875 -2.828125 2.71875l0 8.578125l1.546875 0q0.484375 0 0.703125 0.1875q0.21875 0.171875 0.21875 0.484375q0 0.296875 -0.21875 0.5q-0.21875 0.1875 -0.703125 0.1875l-4.453125 0q-0.484375 0 -0.703125 -0.1875q-0.21875 -0.203125 -0.21875 -0.5q0 -0.3125 0.21875 -0.484375q0.21875 -0.1875 0.703125 -0.1875l1.546875 0l0 -11.34375l-1.15625 0q-0.484375 0 -0.703125 -0.1875q-0.21875 -0.203125 -0.21875 -0.515625q0 -0.296875 0.21875 -0.484375q0.21875 -0.203125 0.703125 -0.203125l2.515625 0zm28.937622 0.890625q0 -0.46875 0.1875 -0.671875q0.203125 -0.21875 0.5 -0.21875q0.3125 0 0.5 0.21875q0.203125 0.203125 0.203125 0.703125l0 2.34375q0 0.5 -0.203125 0.71875q-0.1875 0.203125 -0.5 0.203125q-0.28125 0 -0.46875 -0.171875q-0.1875 -0.1875 -0.21875 -0.59375q-0.09375 -0.984375 -1.015625 -1.609375q-1.328125 -0.921875 -3.53125 -0.921875q-2.28125 0 -3.5625 0.9375q-0.953125 0.6875 -0.953125 1.5625q0 0.96875 1.140625 1.625q0.78125 0.453125 2.953125 0.703125q2.859375 0.296875 3.953125 0.6875q1.578125 0.578125 2.34375 1.59375q0.78125 1.0 0.78125 2.171875q0 1.734375 -1.671875 3.09375q-1.671875 1.359375 -4.90625 1.359375q-3.25 0 -5.3125 -1.640625q0 0.5625 -0.0625 0.71875q-0.0625 0.15625 -0.234375 0.28125q-0.171875 0.109375 -0.390625 0.109375q-0.28125 0 -0.484375 -0.203125q-0.1875 -0.21875 -0.1875 -0.703125l0 -2.828125q0 -0.484375 0.1875 -0.6875q0.1875 -0.21875 0.484375 -0.21875q0.296875 0 0.5 0.203125q0.203125 0.203125 0.203125 0.546875q0 0.75 0.375 1.25q0.578125 0.78125 1.8125 1.296875q1.25 0.515625 3.046875 0.515625q2.671875 0 3.96875 -0.984375q1.3125 -1.0 1.3125 -2.109375q0 -1.265625 -1.3125 -2.03125q-1.34375 -0.765625 -3.890625 -1.015625q-2.546875 -0.265625 -3.65625 -0.6875q-1.09375 -0.4375 -1.71875 -1.28125q-0.625 -0.84375 -0.625 -1.8125q0 -1.765625 1.71875 -2.796875q1.734375 -1.03125 4.125 -1.03125q2.828125 0 4.609375 1.375zm16.171997 -7.21875l0 19.0625l5.375 0q0.5 0 0.703125 0.1875q0.21875 0.171875 0.21875 0.484375q0 0.296875 -0.21875 0.5q-0.203125 0.1875 -0.703125 0.1875l-12.109375 0q-0.484375 0 -0.703125 -0.1875q-0.203125 -0.203125 -0.203125 -0.5q0 -0.3125 0.203125 -0.484375q0.21875 -0.1875 0.703125 -0.1875l5.375 0l0 -17.6875l-3.9375 0q-0.5 0 -0.71875 -0.1875q-0.21875 -0.203125 -0.21875 -0.5q0 -0.296875 0.203125 -0.484375q0.21875 -0.203125 0.734375 -0.203125l5.296875 0zm23.250122 20.421875l0 -1.96875q-2.984375 2.5 -6.375 2.5q-2.453125 0 -3.84375 -1.234375q-1.375 -1.25 -1.375 -3.0625q0 -1.984375 1.8125 -3.453125q1.828125 -1.484375 5.328125 -1.484375q0.953125 0 2.046875 0.125q1.109375 0.109375 2.40625 0.375l0 -2.21875q0 -1.109375 -1.046875 -1.9375q-1.046875 -0.84375 -3.125 -0.84375q-1.59375 0 -4.484375 0.9375q-0.515625 0.15625 -0.65625 0.15625q-0.265625 0 -0.453125 -0.1875q-0.1875 -0.203125 -0.1875 -0.5q0 -0.265625 0.171875 -0.4375q0.21875 -0.234375 1.828125 -0.65625q2.546875 -0.6875 3.84375 -0.6875q2.59375 0 4.03125 1.28125q1.453125 1.265625 1.453125 2.875l0 9.0625l1.828125 0q0.5 0 0.703125 0.1875q0.21875 0.171875 0.21875 0.484375q0 0.296875 -0.21875 0.5q-0.203125 0.1875 -0.703125 0.1875l-3.203125 0zm0 -6.796875q-0.96875 -0.28125 -2.046875 -0.40625q-1.0625 -0.140625 -2.25 -0.140625q-2.984375 0 -4.65625 1.296875q-1.28125 0.953125 -1.28125 2.28125q0 1.25 0.96875 2.09375q0.96875 0.84375 2.828125 0.84375q1.78125 0 3.296875 -0.703125q1.515625 -0.71875 3.140625 -2.265625l0 -3.0zm13.250122 -7.296875l7.421875 0q0.5 0 0.703125 0.203125q0.21875 0.1875 0.21875 0.5q0 0.296875 -0.21875 0.5q-0.203125 0.1875 -0.703125 0.1875l-7.421875 0l0 9.09375q0 1.1875 0.953125 1.984375q0.953125 0.796875 2.796875 0.796875q1.375 0 2.984375 -0.40625q1.625 -0.421875 2.515625 -0.953125q0.328125 -0.203125 0.53125 -0.203125q0.265625 0 0.453125 0.203125q0.203125 0.203125 0.203125 0.484375q0 0.234375 -0.21875 0.453125q-0.515625 0.53125 -2.53125 1.15625q-2.0 0.625 -3.84375 0.625q-2.390625 0 -3.8125 -1.109375q-1.40625 -1.125 -1.40625 -3.03125l0 -9.09375l-2.53125 0q-0.484375 0 -0.703125 -0.1875q-0.203125 -0.203125 -0.203125 -0.515625q0 -0.296875 0.203125 -0.484375q0.21875 -0.203125 0.703125 -0.203125l2.53125 0l0 -4.03125q0 -0.484375 0.1875 -0.703125q0.203125 -0.21875 0.5 -0.21875q0.296875 0 0.484375 0.21875q0.203125 0.21875 0.203125 0.703125l0 4.03125zm23.484467 -7.015625l0 3.53125l-2.0155945 0l0 -3.53125l2.0155945 0zm0.046875 7.015625l0 12.734375l5.375 0q0.5 0 0.703125 0.1875q0.21875 0.171875 0.21875 0.484375q0 0.296875 -0.21875 0.5q-0.203125 0.1875 -0.703125 0.1875l-12.1093445 0q-0.484375 0 -0.703125 -0.1875q-0.203125 -0.203125 -0.203125 -0.5q0 -0.3125 0.203125 -0.484375q0.21875 -0.1875 0.703125 -0.1875l5.3749695 0l0 -11.34375l-3.9843445 0q-0.5 0 -0.71875 -0.1875q-0.21875 -0.203125 -0.21875 -0.5q0 -0.3125 0.203125 -0.5q0.21875 -0.203125 0.734375 -0.203125l5.3437195 0zm14.859497 0l0 2.0625q1.4375 -1.4375 2.59375 -1.984375q1.15625 -0.5625 2.59375 -0.5625q1.5625 0 2.859375 0.671875q0.90625 0.484375 1.640625 1.625q0.75 1.125 0.75 2.3125l0 8.609375l1.15625 0q0.484375 0 0.6875 0.1875q0.21875 0.171875 0.21875 0.484375q0 0.296875 -0.21875 0.5q-0.203125 0.1875 -0.6875 0.1875l-3.671875 0q-0.5 0 -0.71875 -0.1875q-0.203125 -0.203125 -0.203125 -0.5q0 -0.3125 0.203125 -0.484375q0.21875 -0.1875 0.71875 -0.1875l1.140625 0l0 -8.390625q0 -1.453125 -1.0625 -2.453125q-1.046875 -1.0 -2.828125 -1.0q-1.34375 0 -2.34375 0.546875q-0.984375 0.546875 -2.828125 2.71875l0 8.578125l1.546875 0q0.484375 0 0.703125 0.1875q0.21875 0.171875 0.21875 0.484375q0 0.296875 -0.21875 0.5q-0.21875 0.1875 -0.703125 0.1875l-4.453125 0q-0.484375 0 -0.703125 -0.1875q-0.21875 -0.203125 -0.21875 -0.5q0 -0.3125 0.21875 -0.484375q0.21875 -0.1875 0.703125 -0.1875l1.546875 0l0 -11.34375l-1.15625 0q-0.484375 0 -0.703125 -0.1875q-0.21875 -0.203125 -0.21875 -0.515625q0 -0.296875 0.21875 -0.484375q0.21875 -0.203125 0.703125 -0.203125l2.515625 0zm29.015747 2.5l0 -2.5l3.203125 0q0.5 0 0.703125 0.203125q0.21875 0.1875 0.21875 0.5q0 0.296875 -0.21875 0.5q-0.203125 0.1875 -0.703125 0.1875l-1.828125 0l0 13.640625q0 1.375 -0.59375 2.453125q-0.390625 0.703125 -1.296875 1.46875q-0.90625 0.765625 -1.65625 1.09375q-0.75 0.328125 -2.0 0.328125l-3.875 0q-0.5 0 -0.71875 -0.1875q-0.203125 -0.1875 -0.203125 -0.5q0 -0.3125 0.203125 -0.515625q0.21875 -0.1875 0.71875 -0.1875l3.921875 0.03125q1.203125 0 2.171875 -0.625q0.96875 -0.625 1.59375 -1.8125q0.359375 -0.671875 0.359375 -1.734375l0 -4.109375q-2.1875 3.015625 -5.65625 3.015625q-2.8125 0 -4.859375 -2.09375q-2.046875 -2.09375 -2.046875 -5.03125q0 -2.953125 2.046875 -5.03125q2.046875 -2.078125 4.859375 -2.078125q3.46875 0 5.65625 2.984375zm0 4.125q0 -2.40625 -1.65625 -4.0625q-1.640625 -1.671875 -3.9375 -1.671875q-2.296875 0 -3.9375 1.671875q-1.640625 1.671875 -1.640625 4.0625q0 2.40625 1.640625 4.078125q1.640625 1.671875 3.9375 1.671875q2.296875 0 3.9375 -1.671875q1.65625 -1.671875 1.65625 -4.078125zm32.593994 -6.625l7.421875 0q0.5 0 0.703125 0.203125q0.21875 0.1875 0.21875 0.5q0 0.296875 -0.21875 0.5q-0.203125 0.1875 -0.703125 0.1875l-7.421875 0l0 9.09375q0 1.1875 0.953125 1.984375q0.953125 0.796875 2.796875 0.796875q1.375 0 2.984375 -0.40625q1.625 -0.421875 2.515625 -0.953125q0.328125 -0.203125 0.53125 -0.203125q0.265625 0 0.453125 0.203125q0.203125 0.203125 0.203125 0.484375q0 0.234375 -0.21875 0.453125q-0.515625 0.53125 -2.53125 1.15625q-2.0 0.625 -3.84375 0.625q-2.390625 0 -3.8125 -1.109375q-1.40625 -1.125 -1.40625 -3.03125l0 -9.09375l-2.53125 0q-0.484375 0 -0.703125 -0.1875q-0.203125 -0.203125 -0.203125 -0.515625q0 -0.296875 0.203125 -0.484375q0.21875 -0.203125 0.703125 -0.203125l2.53125 0l0 -4.03125q0 -0.484375 0.1875 -0.703125q0.203125 -0.21875 0.5 -0.21875q0.296875 0 0.484375 0.21875q0.203125 0.21875 0.203125 0.703125l0 4.03125zm30.453247 7.078125q0 3.125 -2.234375 5.34375q-2.234375 2.203125 -5.390625 2.203125q-3.203125 0 -5.4375 -2.21875q-2.21875 -2.21875 -2.21875 -5.328125q0 -3.125 2.21875 -5.34375q2.234375 -2.21875 5.4375 -2.21875q3.15625 0 5.390625 2.21875q2.234375 2.203125 2.234375 5.34375zm-1.390625 0q0 -2.5625 -1.828125 -4.375q-1.828125 -1.8125 -4.4375 -1.8125q-2.59375 0 -4.421875 1.828125q-1.828125 1.8125 -1.828125 4.359375q0 2.546875 1.828125 4.375q1.828125 1.8125 4.421875 1.8125q2.609375 0 4.4375 -1.8125q1.828125 -1.8125 1.828125 -4.375z" fill-rule="nonzero"/><path fill="#000000" d="m46.22121 252.57812l3.546875 0l2.796875 7.015625q0.140625 0.375 0.140625 0.5625q0 0.34375 -0.25 0.59375q-0.234375 0.234375 -0.59375 0.234375q-0.453125 0 -0.859375 -0.640625l-4.78125 -7.765625zm7.03125 0l3.546875 0l2.796875 7.015625q0.140625 0.375 0.140625 0.5625q0 0.34375 -0.234375 0.59375q-0.234375 0.234375 -0.59375 0.234375q-0.46875 0 -0.875 -0.640625l-4.78125 -7.765625zm14.906391 6.328125l0 2.484375q1.21875 -1.46875 2.625 -2.21875q1.40625 -0.75 3.296875 -0.75q2.03125 0 3.734375 0.953125q1.703125 0.9375 2.640625 2.625q0.9375 1.671875 0.9375 3.53125q0 2.9375 -2.109375 5.03125q-2.109375 2.09375 -5.171875 2.09375q-3.671875 0 -5.953125 -2.96875l0 8.234375l3.328125 0q0.484375 0 0.6875 0.171875q0.21875 0.1875 0.21875 0.5q0 0.296875 -0.21875 0.484375q-0.203125 0.203125 -0.6875 0.203125l-6.53125 0q-0.484375 0 -0.703125 -0.1875q-0.203125 -0.1875 -0.203125 -0.5q0 -0.3125 0.203125 -0.5q0.21875 -0.171875 0.703125 -0.171875l1.84375 0l0 -17.625l-1.84375 0q-0.484375 0 -0.703125 -0.1875q-0.203125 -0.203125 -0.203125 -0.515625q0 -0.296875 0.203125 -0.484375q0.21875 -0.203125 0.703125 -0.203125l3.203125 0zm11.859375 6.625q0 -2.359375 -1.71875 -4.046875q-1.71875 -1.6875 -4.1875 -1.6875q-2.5 0 -4.234375 1.703125q-1.71875 1.6875 -1.71875 4.03125q0 2.359375 1.71875 4.0625q1.734375 1.6875 4.234375 1.6875q2.453125 0 4.171875 -1.6875q1.734375 -1.6875 1.734375 -4.0625zm13.984512 -12.953125l0 19.0625l5.375 0q0.5 0 0.703125 0.1875q0.21875 0.171875 0.21875 0.484375q0 0.296875 -0.21875 0.5q-0.203125 0.1875 -0.703125 0.1875l-12.109375 0q-0.484375 0 -0.703125 -0.1875q-0.203125 -0.203125 -0.203125 -0.5q0 -0.3125 0.203125 -0.484375q0.21875 -0.1875 0.703125 -0.1875l5.375 0l0 -17.6875l-3.9375 0q-0.5 0 -0.71875 -0.1875q-0.21875 -0.203125 -0.21875 -0.5q0 -0.296875 0.203125 -0.484375q0.21875 -0.203125 0.734375 -0.203125l5.296875 0zm23.250137 20.421875l0 -1.96875q-2.984375 2.5 -6.375 2.5q-2.453125 0 -3.84375 -1.234375q-1.375 -1.25 -1.375 -3.0625q0 -1.984375 1.8125 -3.453125q1.828125 -1.484375 5.328125 -1.484375q0.953125 0 2.046875 0.125q1.109375 0.109375 2.40625 0.375l0 -2.21875q0 -1.109375 -1.046875 -1.9375q-1.046875 -0.84375 -3.125 -0.84375q-1.59375 0 -4.484375 0.9375q-0.515625 0.15625 -0.65625 0.15625q-0.265625 0 -0.453125 -0.1875q-0.1875 -0.203125 -0.1875 -0.5q0 -0.265625 0.171875 -0.4375q0.21875 -0.234375 1.828125 -0.65625q2.546875 -0.6875 3.84375 -0.6875q2.59375 0 4.03125 1.28125q1.453125 1.265625 1.453125 2.875l0 9.0625l1.828125 0q0.5 0 0.703125 0.1875q0.21875 0.171875 0.21875 0.484375q0 0.296875 -0.21875 0.5q-0.203125 0.1875 -0.703125 0.1875l-3.203125 0zm0 -6.796875q-0.96875 -0.28125 -2.046875 -0.40625q-1.0625 -0.140625 -2.25 -0.140625q-2.984375 0 -4.65625 1.296875q-1.28125 0.953125 -1.28125 2.28125q0 1.25 0.96875 2.09375q0.96875 0.84375 2.828125 0.84375q1.78125 0 3.296875 -0.703125q1.515625 -0.71875 3.140625 -2.265625l0 -3.0zm21.765755 -5.90625l0 -0.46875q0 -0.5 0.1875 -0.703125q0.203125 -0.21875 0.5 -0.21875q0.3125 0 0.5 0.21875q0.203125 0.203125 0.203125 0.703125l0 3.09375q-0.015625 0.515625 -0.203125 0.734375q-0.1875 0.203125 -0.5 0.203125q-0.28125 0 -0.46875 -0.1875q-0.1875 -0.1875 -0.21875 -0.625q-0.09375 -1.15625 -1.515625 -2.203125q-1.421875 -1.046875 -3.84375 -1.046875q-3.03125 0 -4.609375 1.90625q-1.5781174 1.90625 -1.5781174 4.359375q0 2.65625 1.7343674 4.390625q1.734375 1.71875 4.515625 1.71875q1.59375 0 3.234375 -0.578125q1.65625 -0.59375 2.984375 -1.890625q0.34375 -0.328125 0.609375 -0.328125q0.28125 0 0.46875 0.1875q0.1875 0.1875 0.1875 0.453125q0 0.703125 -1.65625 1.78125q-2.640625 1.734375 -5.90625 1.734375q-3.296875 0 -5.421875 -2.09375q-2.1249924 -2.109375 -2.1249924 -5.359375q0 -3.296875 2.1718674 -5.46875q2.171875 -2.1875 5.484375 -2.1875q3.140625 0 5.265625 1.875zm21.687637 5.984375l-13.921875 0q0.359375 2.65625 2.21875 4.28125q1.859375 1.609375 4.609375 1.609375q1.53125 0 3.203125 -0.5q1.6875 -0.515625 2.734375 -1.34375q0.3125 -0.234375 0.546875 -0.234375q0.25 0 0.4375 0.203125q0.203125 0.203125 0.203125 0.46875q0 0.28125 -0.25 0.546875q-0.78125 0.8125 -2.78125 1.515625q-1.984375 0.703125 -4.09375 0.703125q-3.515625 0 -5.875 -2.296875q-2.34375 -2.296875 -2.34375 -5.578125q0 -2.96875 2.203125 -5.09375q2.21875 -2.140625 5.46875 -2.140625q3.34375 0 5.5 2.1875q2.171875 2.1875 2.140625 5.671875zm-1.375 -1.390625q-0.40625 -2.25 -2.140625 -3.671875q-1.734375 -1.421875 -4.125 -1.421875q-2.390625 0 -4.125 1.40625q-1.71875 1.390625 -2.140625 3.6875l12.53125 0zm41.625275 1.09375q0 3.125 -2.234375 5.34375q-2.234375 2.203125 -5.390625 2.203125q-3.203125 0 -5.4375 -2.21875q-2.21875 -2.21875 -2.21875 -5.328125q0 -3.125 2.21875 -5.34375q2.234375 -2.21875 5.4375 -2.21875q3.15625 0 5.390625 2.21875q2.234375 2.203125 2.234375 5.34375zm-1.390625 0q0 -2.5625 -1.828125 -4.375q-1.828125 -1.8125 -4.4375 -1.8125q-2.59375 0 -4.421875 1.828125q-1.828125 1.8125 -1.828125 4.359375q0 2.546875 1.828125 4.375q1.828125 1.8125 4.421875 1.8125q2.609375 0 4.4375 -1.8125q1.828125 -1.8125 1.828125 -4.375zm12.843887 -5.6875l0 11.34375l6.015625 0q0.484375 0 0.6875 0.1875q0.21875 0.171875 0.21875 0.484375q0 0.296875 -0.21875 0.5q-0.203125 0.1875 -0.6875 0.1875l-10.703125 0q-0.484375 0 -0.703125 -0.1875q-0.203125 -0.203125 -0.203125 -0.5q0 -0.3125 0.203125 -0.484375q0.21875 -0.1875 0.703125 -0.1875l3.3125 0l0 -11.34375l-2.96875 0q-0.484375 0 -0.703125 -0.1875q-0.203125 -0.203125 -0.203125 -0.515625q0 -0.296875 0.203125 -0.484375q0.21875 -0.203125 0.703125 -0.203125l2.96875 0l0 -2.0625q0 -1.734375 1.390625 -3.0q1.40625 -1.265625 3.71875 -1.265625q1.9375 0 4.125 0.359375q0.828125 0.125 1.0 0.3125q0.171875 0.171875 0.171875 0.46875q0 0.296875 -0.203125 0.484375q-0.1875 0.1875 -0.515625 0.1875q-0.125 0 -0.4375 -0.0625q-2.453125 -0.375 -4.140625 -0.375q-1.796875 0 -2.765625 0.890625q-0.96875 0.875 -0.96875 2.0l0 2.0625l6.40625 0q0.484375 0 0.6875 0.203125q0.21875 0.1875 0.21875 0.5q0 0.296875 -0.21875 0.5q-0.203125 0.1875 -0.6875 0.1875l-6.40625 0zm39.2659 -1.390625l0 3.453125q2.671875 -2.40625 4.0 -3.09375q1.3281403 -0.703125 2.4531403 -0.703125q1.21875 0 2.265625 0.828125q1.046875 0.8125 1.046875 1.234375q0 0.3125 -0.203125 0.515625q-0.203125 0.203125 -0.515625 0.203125q-0.15625 0 -0.28125 -0.046875q-0.109375 -0.0625 -0.40625 -0.375q-0.578125 -0.5625 -1.0 -0.765625q-0.421875 -0.21875 -0.828125 -0.21875q-0.890625 0 -2.15625 0.71875q-1.2656403 0.703125 -4.3750153 3.484375l0 7.5l6.0625153 0q0.5 0 0.703125 0.1875q0.21875 0.171875 0.21875 0.484375q0 0.296875 -0.21875 0.5q-0.203125 0.1875 -0.703125 0.1875l-10.73439 0q-0.484375 0 -0.703125 -0.1875q-0.203125 -0.1875 -0.203125 -0.484375q0 -0.265625 0.203125 -0.453125q0.203125 -0.1875 0.703125 -0.1875l3.3125 0l0 -11.390625l-2.53125 0q-0.484375 0 -0.703125 -0.1875q-0.203125 -0.203125 -0.203125 -0.515625q0 -0.296875 0.203125 -0.484375q0.203125 -0.203125 0.703125 -0.203125l3.890625 0zm29.031387 7.375l-13.921875 0q0.359375 2.65625 2.21875 4.28125q1.859375 1.609375 4.609375 1.609375q1.53125 0 3.203125 -0.5q1.6875 -0.515625 2.734375 -1.34375q0.3125 -0.234375 0.546875 -0.234375q0.25 0 0.4375 0.203125q0.203125 0.203125 0.203125 0.46875q0 0.28125 -0.25 0.546875q-0.78125 0.8125 -2.78125 1.515625q-1.984375 0.703125 -4.09375 0.703125q-3.515625 0 -5.875 -2.296875q-2.34375 -2.296875 -2.34375 -5.578125q0 -2.96875 2.203125 -5.09375q2.21875 -2.140625 5.46875 -2.140625q3.34375 0 5.5 2.1875q2.171875 2.1875 2.140625 5.671875zm-1.375 -1.390625q-0.40625 -2.25 -2.140625 -3.671875q-1.734375 -1.421875 -4.125 -1.421875q-2.390625 0 -4.125 1.40625q-1.71875 1.390625 -2.140625 3.6875l12.53125 0zm18.500153 -5.09375q0 -0.46875 0.1875 -0.671875q0.203125 -0.21875 0.5 -0.21875q0.3125 0 0.5 0.21875q0.203125 0.203125 0.203125 0.703125l0 2.34375q0 0.5 -0.203125 0.71875q-0.1875 0.203125 -0.5 0.203125q-0.28125 0 -0.46875 -0.171875q-0.1875 -0.1875 -0.21875 -0.59375q-0.09375 -0.984375 -1.015625 -1.609375q-1.328125 -0.921875 -3.53125 -0.921875q-2.28125 0 -3.5625 0.9375q-0.953125 0.6875 -0.953125 1.5625q0 0.96875 1.140625 1.625q0.78125 0.453125 2.953125 0.703125q2.859375 0.296875 3.953125 0.6875q1.578125 0.578125 2.34375 1.59375q0.78125 1.0 0.78125 2.171875q0 1.734375 -1.671875 3.09375q-1.671875 1.359375 -4.90625 1.359375q-3.25 0 -5.3125 -1.640625q0 0.5625 -0.0625 0.71875q-0.0625 0.15625 -0.234375 0.28125q-0.171875 0.109375 -0.390625 0.109375q-0.28125 0 -0.484375 -0.203125q-0.1875 -0.21875 -0.1875 -0.703125l0 -2.828125q0 -0.484375 0.1875 -0.6875q0.1875 -0.21875 0.484375 -0.21875q0.296875 0 0.5 0.203125q0.203125 0.203125 0.203125 0.546875q0 0.75 0.375 1.25q0.578125 0.78125 1.8125 1.296875q1.25 0.515625 3.046875 0.515625q2.671875 0 3.96875 -0.984375q1.3125 -1.0 1.3125 -2.109375q0 -1.265625 -1.3125 -2.03125q-1.34375 -0.765625 -3.890625 -1.015625q-2.546875 -0.265625 -3.65625 -0.6875q-1.09375 -0.4375 -1.71875 -1.28125q-0.625 -0.84375 -0.625 -1.8125q0 -1.765625 1.71875 -2.796875q1.734375 -1.03125 4.125 -1.03125q2.828125 0 4.609375 1.375zm16.156372 -7.90625l0 3.53125l-2.015625 0l0 -3.53125l2.015625 0zm0.046875 7.015625l0 12.734375l5.375 0q0.5 0 0.703125 0.1875q0.21875 0.171875 0.21875 0.484375q0 0.296875 -0.21875 0.5q-0.203125 0.1875 -0.703125 0.1875l-12.109375 0q-0.484375 0 -0.703125 -0.1875q-0.203125 -0.203125 -0.203125 -0.5q0 -0.3125 0.203125 -0.484375q0.21875 -0.1875 0.703125 -0.1875l5.375 0l0 -11.34375l-3.984375 0q-0.5 0 -0.71875 -0.1875q-0.21875 -0.203125 -0.21875 -0.5q0 -0.3125 0.203125 -0.5q0.21875 -0.203125 0.734375 -0.203125l5.34375 0zm25.984497 -6.328125l0 19.0625l1.8125 0q0.515625 0 0.71875 0.1875q0.21875 0.171875 0.21875 0.484375q0 0.296875 -0.21875 0.5q-0.203125 0.1875 -0.71875 0.1875l-3.203125 0l0 -2.71875q-2.375 3.25 -6.03125 3.25q-1.859375 0 -3.5625 -0.984375q-1.703125 -0.984375 -2.6875 -2.796875q-0.984375 -1.828125 -0.984375 -3.765625q0 -1.953125 0.984375 -3.765625q0.984375 -1.8125 2.6875 -2.796875q1.703125 -1.0 3.578125 -1.0q3.578125 0 6.015625 3.25l0 -7.71875l-1.828125 0q-0.5 0 -0.71875 -0.1875q-0.203125 -0.203125 -0.203125 -0.5q0 -0.296875 0.203125 -0.484375q0.21875 -0.203125 0.71875 -0.203125l3.21875 0zm-1.390625 13.40625q0 -2.609375 -1.765625 -4.390625q-1.75 -1.796875 -4.171875 -1.796875q-2.4375 0 -4.203125 1.796875q-1.75 1.78125 -1.75 4.390625q0 2.59375 1.75 4.390625q1.765625 1.796875 4.203125 1.796875q2.421875 0 4.171875 -1.796875q1.765625 -1.796875 1.765625 -4.390625zm22.078247 0.296875l-13.921875 0q0.359375 2.65625 2.21875 4.28125q1.859375 1.609375 4.609375 1.609375q1.53125 0 3.203125 -0.5q1.6875 -0.515625 2.734375 -1.34375q0.3125 -0.234375 0.546875 -0.234375q0.25 0 0.4375 0.203125q0.203125 0.203125 0.203125 0.46875q0 0.28125 -0.25 0.546875q-0.78125 0.8125 -2.78125 1.515625q-1.984375 0.703125 -4.09375 0.703125q-3.515625 0 -5.875 -2.296875q-2.34375 -2.296875 -2.34375 -5.578125q0 -2.96875 2.203125 -5.09375q2.21875 -2.140625 5.46875 -2.140625q3.34375 0 5.5 2.1875q2.171875 2.1875 2.140625 5.671875zm-1.375 -1.390625q-0.40625 -2.25 -2.140625 -3.671875q-1.734375 -1.421875 -4.125 -1.421875q-2.390625 0 -4.125 1.40625q-1.71875 1.390625 -2.140625 3.6875l12.53125 0zm9.562622 -5.984375l0 2.0625q1.4375 -1.4375 2.59375 -1.984375q1.15625 -0.5625 2.59375 -0.5625q1.5625 0 2.859375 0.671875q0.90625 0.484375 1.640625 1.625q0.75 1.125 0.75 2.3125l0 8.609375l1.15625 0q0.484375 0 0.6875 0.1875q0.21875 0.171875 0.21875 0.484375q0 0.296875 -0.21875 0.5q-0.203125 0.1875 -0.6875 0.1875l-3.671875 0q-0.5 0 -0.71875 -0.1875q-0.203125 -0.203125 -0.203125 -0.5q0 -0.3125 0.203125 -0.484375q0.21875 -0.1875 0.71875 -0.1875l1.140625 0l0 -8.390625q0 -1.453125 -1.0625 -2.453125q-1.046875 -1.0 -2.828125 -1.0q-1.34375 0 -2.34375 0.546875q-0.984375 0.546875 -2.828125 2.71875l0 8.578125l1.546875 0q0.484375 0 0.703125 0.1875q0.21875 0.171875 0.21875 0.484375q0 0.296875 -0.21875 0.5q-0.21875 0.1875 -0.703125 0.1875l-4.453125 0q-0.484375 0 -0.703125 -0.1875q-0.21875 -0.203125 -0.21875 -0.5q0 -0.3125 0.21875 -0.484375q0.21875 -0.1875 0.703125 -0.1875l1.546875 0l0 -11.34375l-1.15625 0q-0.484375 0 -0.703125 -0.1875q-0.21875 -0.203125 -0.21875 -0.515625q0 -0.296875 0.21875 -0.484375q0.21875 -0.203125 0.703125 -0.203125l2.515625 0zm30.125122 1.390625l0 -0.46875q0 -0.5 0.1875 -0.703125q0.203125 -0.21875 0.5 -0.21875q0.3125 0 0.5 0.21875q0.203125 0.203125 0.203125 0.703125l0 3.09375q-0.015625 0.515625 -0.203125 0.734375q-0.1875 0.203125 -0.5 0.203125q-0.28125 0 -0.46875 -0.1875q-0.1875 -0.1875 -0.21875 -0.625q-0.09375 -1.15625 -1.515625 -2.203125q-1.421875 -1.046875 -3.84375 -1.046875q-3.03125 0 -4.609375 1.90625q-1.578125 1.90625 -1.578125 4.359375q0 2.65625 1.734375 4.390625q1.734375 1.71875 4.515625 1.71875q1.59375 0 3.234375 -0.578125q1.65625 -0.59375 2.984375 -1.890625q0.34375 -0.328125 0.609375 -0.328125q0.28125 0 0.46875 0.1875q0.1875 0.1875 0.1875 0.453125q0 0.703125 -1.65625 1.78125q-2.640625 1.734375 -5.90625 1.734375q-3.296875 0 -5.421875 -2.09375q-2.125 -2.109375 -2.125 -5.359375q0 -3.296875 2.171875 -5.46875q2.171875 -2.1875 5.484375 -2.1875q3.140625 0 5.265625 1.875zm21.687622 5.984375l-13.921875 0q0.359375 2.65625 2.21875 4.28125q1.859375 1.609375 4.609375 1.609375q1.53125 0 3.203125 -0.5q1.6875 -0.515625 2.734375 -1.34375q0.3125 -0.234375 0.546875 -0.234375q0.25 0 0.4375 0.203125q0.203125 0.203125 0.203125 0.46875q0 0.28125 -0.25 0.546875q-0.78125 0.8125 -2.78125 1.515625q-1.984375 0.703125 -4.09375 0.703125q-3.515625 0 -5.875 -2.296875q-2.34375 -2.296875 -2.34375 -5.578125q0 -2.96875 2.203125 -5.09375q2.21875 -2.140625 5.46875 -2.140625q3.34375 0 5.5 2.1875q2.171875 2.1875 2.140625 5.671875zm-1.375 -1.390625q-0.40625 -2.25 -2.140625 -3.671875q-1.734375 -1.421875 -4.125 -1.421875q-2.390625 0 -4.125 1.40625q-1.71875 1.390625 -2.140625 3.6875l12.53125 0zm11.281372 3.1875l4.4375 0l-4.828125 8.984375q-0.453125 0.8125 -1.0625 0.8125q-0.40625 0 -0.703125 -0.28125q-0.28125 -0.28125 -0.28125 -0.6875q0 -0.15625 0.0625 -0.359375l2.375 -8.46875zm47.42212 4.921875l-1.703125 0.015625l-3.0 -8.78125l-3.0 8.78125l-1.6875 -0.015625l-2.84375 -12.703125l-0.65625 0q-0.5 0 -0.71875 -0.1875q-0.203125 -0.203125 -0.203125 -0.515625q0 -0.296875 0.203125 -0.484375q0.21875 -0.203125 0.71875 -0.203125l3.75 0q0.484375 0 0.703125 0.203125q0.21875 0.1875 0.21875 0.5q0 0.296875 -0.21875 0.5q-0.21875 0.1875 -0.703125 0.1875l-1.734375 0l2.421875 10.828125l2.90625 -8.65625l1.640625 0l2.984375 8.65625l2.328125 -10.828125l-1.71875 0q-0.5 0 -0.71875 -0.1875q-0.21875 -0.203125 -0.21875 -0.515625q0 -0.296875 0.203125 -0.484375q0.21875 -0.203125 0.734375 -0.203125l3.734375 0q0.515625 0 0.71875 0.203125q0.21875 0.1875 0.21875 0.5q0 0.296875 -0.21875 0.5q-0.203125 0.1875 -0.71875 0.1875l-0.640625 0l-2.78125 12.703125zm10.781372 -20.421875l0 8.40625q1.296875 -1.40625 2.484375 -1.984375q1.203125 -0.578125 2.6875 -0.578125q1.59375 0 2.703125 0.5625q1.125 0.5625 1.875 1.734375q0.75 1.15625 0.75 2.4375l0 8.484375l1.53125 0q0.5 0 0.703125 0.1875q0.203125 0.171875 0.203125 0.484375q0 0.296875 -0.203125 0.5q-0.203125 0.1875 -0.703125 0.1875l-4.453125 0q-0.5 0 -0.71875 -0.1875q-0.203125 -0.203125 -0.203125 -0.5q0 -0.3125 0.203125 -0.484375q0.21875 -0.1875 0.71875 -0.1875l1.53125 0l0 -8.390625q0 -1.484375 -1.0625 -2.46875q-1.0625 -1.0 -2.96875 -1.0q-1.5 0 -2.5625 0.734375q-0.75 0.515625 -2.515625 2.453125l0 8.671875l1.546875 0q0.484375 0 0.6875 0.1875q0.21875 0.171875 0.21875 0.484375q0 0.296875 -0.21875 0.5q-0.203125 0.1875 -0.6875 0.1875l-4.453125 0q-0.5 0 -0.71875 -0.1875q-0.203125 -0.203125 -0.203125 -0.5q0 -0.3125 0.203125 -0.484375q0.21875 -0.1875 0.71875 -0.1875l1.546875 0l0 -17.6875l-1.84375 0q-0.484375 0 -0.703125 -0.1875q-0.203125 -0.203125 -0.203125 -0.5q0 -0.296875 0.203125 -0.484375q0.21875 -0.203125 0.703125 -0.203125l3.203125 0zm31.890717 13.703125l-13.9218445 0q0.359375 2.65625 2.21875 4.28125q1.859375 1.609375 4.6093445 1.609375q1.53125 0 3.203125 -0.5q1.6875 -0.515625 2.734375 -1.34375q0.3125 -0.234375 0.546875 -0.234375q0.25 0 0.4375 0.203125q0.203125 0.203125 0.203125 0.46875q0 0.28125 -0.25 0.546875q-0.78125 0.8125 -2.78125 1.515625q-1.984375 0.703125 -4.09375 0.703125q-3.5155945 0 -5.8749695 -2.296875q-2.34375 -2.296875 -2.34375 -5.578125q0 -2.96875 2.203125 -5.09375q2.21875 -2.140625 5.4687195 -2.140625q3.34375 0 5.5 2.1875q2.171875 2.1875 2.140625 5.671875zm-1.375 -1.390625q-0.40625 -2.25 -2.140625 -3.671875q-1.734375 -1.421875 -4.125 -1.421875q-2.3905945 0 -4.1249695 1.40625q-1.71875 1.390625 -2.140625 3.6875l12.5312195 0zm12.343872 -5.984375l0 3.453125q2.671875 -2.40625 4.0 -3.09375q1.328125 -0.703125 2.453125 -0.703125q1.21875 0 2.265625 0.828125q1.046875 0.8125 1.046875 1.234375q0 0.3125 -0.203125 0.515625q-0.203125 0.203125 -0.515625 0.203125q-0.15625 0 -0.28125 -0.046875q-0.109375 -0.0625 -0.40625 -0.375q-0.578125 -0.5625 -1.0 -0.765625q-0.421875 -0.21875 -0.828125 -0.21875q-0.890625 0 -2.15625 0.71875q-1.265625 0.703125 -4.375 3.484375l0 7.5l6.0625 0q0.5 0 0.703125 0.1875q0.21875 0.171875 0.21875 0.484375q0 0.296875 -0.21875 0.5q-0.203125 0.1875 -0.703125 0.1875l-10.734375 0q-0.484375 0 -0.703125 -0.1875q-0.203125 -0.1875 -0.203125 -0.484375q0 -0.265625 0.203125 -0.453125q0.203125 -0.1875 0.703125 -0.1875l3.3125 0l0 -11.390625l-2.53125 0q-0.484375 0 -0.703125 -0.1875q-0.203125 -0.203125 -0.203125 -0.515625q0 -0.296875 0.203125 -0.484375q0.203125 -0.203125 0.703125 -0.203125l3.890625 0zm29.031372 7.375l-13.921875 0q0.359375 2.65625 2.21875 4.28125q1.859375 1.609375 4.609375 1.609375q1.53125 0 3.203125 -0.5q1.6875 -0.515625 2.734375 -1.34375q0.3125 -0.234375 0.546875 -0.234375q0.25 0 0.4375 0.203125q0.203125 0.203125 0.203125 0.46875q0 0.28125 -0.25 0.546875q-0.78125 0.8125 -2.78125 1.515625q-1.984375 0.703125 -4.09375 0.703125q-3.515625 0 -5.875 -2.296875q-2.34375 -2.296875 -2.34375 -5.578125q0 -2.96875 2.203125 -5.09375q2.21875 -2.140625 5.46875 -2.140625q3.34375 0 5.5 2.1875q2.171875 2.1875 2.140625 5.671875zm-1.375 -1.390625q-0.40625 -2.25 -2.140625 -3.671875q-1.734375 -1.421875 -4.125 -1.421875q-2.390625 0 -4.125 1.40625q-1.71875 1.390625 -2.140625 3.6875l12.53125 0zm41.625244 1.09375q0 3.125 -2.234375 5.34375q-2.234375 2.203125 -5.390625 2.203125q-3.203125 0 -5.4375 -2.21875q-2.21875 -2.21875 -2.21875 -5.328125q0 -3.125 2.21875 -5.34375q2.234375 -2.21875 5.4375 -2.21875q3.15625 0 5.390625 2.21875q2.234375 2.203125 2.234375 5.34375zm-1.390625 0q0 -2.5625 -1.828125 -4.375q-1.828125 -1.8125 -4.4375 -1.8125q-2.59375 0 -4.421875 1.828125q-1.828125 1.8125 -1.828125 4.359375q0 2.546875 1.828125 4.375q1.828125 1.8125 4.421875 1.8125q2.609375 0 4.4375 -1.8125q1.828125 -1.8125 1.828125 -4.375zm9.328247 -7.078125l0 2.0625q1.4375 -1.4375 2.59375 -1.984375q1.15625 -0.5625 2.59375 -0.5625q1.5625 0 2.859375 0.671875q0.90625 0.484375 1.640625 1.625q0.75 1.125 0.75 2.3125l0 8.609375l1.15625 0q0.484375 0 0.6875 0.1875q0.21875 0.171875 0.21875 0.484375q0 0.296875 -0.21875 0.5q-0.203125 0.1875 -0.6875 0.1875l-3.671875 0q-0.5 0 -0.71875 -0.1875q-0.203125 -0.203125 -0.203125 -0.5q0 -0.3125 0.203125 -0.484375q0.21875 -0.1875 0.71875 -0.1875l1.140625 0l0 -8.390625q0 -1.453125 -1.0625 -2.453125q-1.046875 -1.0 -2.828125 -1.0q-1.34375 0 -2.34375 0.546875q-0.984375 0.546875 -2.828125 2.71875l0 8.578125l1.546875 0q0.484375 0 0.703125 0.1875q0.21875 0.171875 0.21875 0.484375q0 0.296875 -0.21875 0.5q-0.21875 0.1875 -0.703125 0.1875l-4.453125 0q-0.484375 0 -0.703125 -0.1875q-0.21875 -0.203125 -0.21875 -0.5q0 -0.3125 0.21875 -0.484375q0.21875 -0.1875 0.703125 -0.1875l1.546875 0l0 -11.34375l-1.15625 0q-0.484375 0 -0.703125 -0.1875q-0.21875 -0.203125 -0.21875 -0.515625q0 -0.296875 0.21875 -0.484375q0.21875 -0.203125 0.703125 -0.203125l2.515625 0zm31.812622 7.375l-13.921875 0q0.359375 2.65625 2.21875 4.28125q1.859375 1.609375 4.609375 1.609375q1.53125 0 3.203125 -0.5q1.6875 -0.515625 2.734375 -1.34375q0.3125 -0.234375 0.546875 -0.234375q0.25 0 0.4375 0.203125q0.203125 0.203125 0.203125 0.46875q0 0.28125 -0.25 0.546875q-0.78125 0.8125 -2.78125 1.515625q-1.984375 0.703125 -4.09375 0.703125q-3.515625 0 -5.875 -2.296875q-2.34375 -2.296875 -2.34375 -5.578125q0 -2.96875 2.203125 -5.09375q2.21875 -2.140625 5.46875 -2.140625q3.34375 0 5.5 2.1875q2.171875 2.1875 2.140625 5.671875zm-1.375 -1.390625q-0.40625 -2.25 -2.140625 -3.671875q-1.734375 -1.421875 -4.125 -1.421875q-2.390625 0 -4.125 1.40625q-1.71875 1.390625 -2.140625 3.6875l12.53125 0z" fill-rule="nonzero"/><path fill="#000000" d="m54.00246 292.57812l0 19.0625l5.375 0q0.5 0 0.703125 0.1875q0.21875 0.171875 0.21875 0.484375q0 0.296875 -0.21875 0.5q-0.203125 0.1875 -0.703125 0.1875l-12.109375 0q-0.484375 0 -0.703125 -0.1875q-0.203125 -0.203125 -0.203125 -0.5q0 -0.3125 0.203125 -0.484375q0.21875 -0.1875 0.703125 -0.1875l5.375 0l0 -17.6875l-3.9375 0q-0.5 0 -0.71875 -0.1875q-0.21875 -0.203125 -0.21875 -0.5q0 -0.296875 0.203125 -0.484375q0.21875 -0.203125 0.734375 -0.203125l5.296875 0zm19.984516 -0.6875l0 3.53125l-2.015625 0l0 -3.53125l2.015625 0zm0.046875 7.015625l0 12.734375l5.375 0q0.5 0 0.703125 0.1875q0.21875 0.171875 0.21875 0.484375q0 0.296875 -0.21875 0.5q-0.203125 0.1875 -0.703125 0.1875l-12.109375 0q-0.484375 0 -0.703125 -0.1875q-0.203125 -0.203125 -0.203125 -0.5q0 -0.3125 0.203125 -0.484375q0.21875 -0.1875 0.703125 -0.1875l5.375 0l0 -11.34375l-3.984375 0q-0.5 0 -0.71875 -0.1875q-0.21875 -0.203125 -0.21875 -0.5q0 -0.3125 0.203125 -0.5q0.21875 -0.203125 0.734375 -0.203125l5.34375 0zm20.484512 14.09375l-2.3125 0l-5.625 -12.703125l-1.390625 0q-0.484375 0 -0.703125 -0.1875q-0.21875 -0.203125 -0.21875 -0.515625q0 -0.296875 0.21875 -0.484375q0.21875 -0.203125 0.703125 -0.203125l5.125 0q0.484375 0 0.6875 0.203125q0.21875 0.1875 0.21875 0.5q0 0.296875 -0.21875 0.5q-0.203125 0.1875 -0.6875 0.1875l-2.265625 0l5.015625 11.34375l0.59375 0l4.921875 -11.34375l-2.28125 0q-0.484375 0 -0.703125 -0.1875q-0.203125 -0.203125 -0.203125 -0.515625q0 -0.296875 0.203125 -0.484375q0.21875 -0.203125 0.703125 -0.203125l5.140625 0q0.515625 0 0.71875 0.203125q0.203125 0.1875 0.203125 0.5q0 0.296875 -0.203125 0.5q-0.203125 0.1875 -0.71875 0.1875l-1.375 0l-5.546875 12.703125zm26.187637 -6.71875l-13.921875 0q0.359375 2.65625 2.21875 4.28125q1.859375 1.609375 4.609375 1.609375q1.53125 0 3.203125 -0.5q1.6875 -0.515625 2.734375 -1.34375q0.3125 -0.234375 0.546875 -0.234375q0.25 0 0.4375 0.203125q0.203125 0.203125 0.203125 0.46875q0 0.28125 -0.25 0.546875q-0.78125 0.8125 -2.78125 1.515625q-1.984375 0.703125 -4.09375 0.703125q-3.515625 0 -5.875 -2.296875q-2.34375 -2.296875 -2.34375 -5.578125q0 -2.96875 2.203125 -5.09375q2.21875 -2.140625 5.46875 -2.140625q3.34375 0 5.5 2.1875q2.171875 2.1875 2.140625 5.671875zm-1.375 -1.390625q-0.40625 -2.25 -2.140625 -3.671875q-1.734375 -1.421875 -4.125 -1.421875q-2.390625 0 -4.125 1.40625q-1.71875 1.390625 -2.140625 3.6875l12.53125 0zm18.50013 -5.09375q0 -0.46875 0.1875 -0.671875q0.203125 -0.21875 0.5 -0.21875q0.3125 0 0.5 0.21875q0.203125 0.203125 0.203125 0.703125l0 2.34375q0 0.5 -0.203125 0.71875q-0.1875 0.203125 -0.5 0.203125q-0.28125 0 -0.46875 -0.171875q-0.1875 -0.1875 -0.21875 -0.59375q-0.09375 -0.984375 -1.015625 -1.609375q-1.328125 -0.921875 -3.53125 -0.921875q-2.28125 0 -3.5625 0.9375q-0.953125 0.6875 -0.953125 1.5625q0 0.96875 1.140625 1.625q0.78125 0.453125 2.953125 0.703125q2.859375 0.296875 3.953125 0.6875q1.578125 0.578125 2.34375 1.59375q0.78125 1.0 0.78125 2.171875q0 1.734375 -1.671875 3.09375q-1.671875 1.359375 -4.90625 1.359375q-3.25 0 -5.3125 -1.640625q0 0.5625 -0.06249237 0.71875q-0.0625 0.15625 -0.234375 0.28125q-0.171875 0.109375 -0.390625 0.109375q-0.28125 0 -0.484375 -0.203125q-0.1875 -0.21875 -0.1875 -0.703125l0 -2.828125q0 -0.484375 0.1875 -0.6875q0.1875 -0.21875 0.484375 -0.21875q0.296875 0 0.5 0.203125q0.20311737 0.203125 0.20311737 0.546875q0 0.75 0.375 1.25q0.578125 0.78125 1.8125 1.296875q1.25 0.515625 3.046875 0.515625q2.671875 0 3.96875 -0.984375q1.3125 -1.0 1.3125 -2.109375q0 -1.265625 -1.3125 -2.03125q-1.34375 -0.765625 -3.890625 -1.015625q-2.546875 -0.265625 -3.65625 -0.6875q-1.09375 -0.4375 -1.71875 -1.28125q-0.6249924 -0.84375 -0.6249924 -1.8125q0 -1.765625 1.7187424 -2.796875q1.734375 -1.03125 4.125 -1.03125q2.828125 0 4.609375 1.375zm39.42215 13.203125l0 -1.96875q-2.984375 2.5 -6.375 2.5q-2.453125 0 -3.84375 -1.234375q-1.375 -1.25 -1.375 -3.0625q0 -1.984375 1.8125 -3.453125q1.828125 -1.484375 5.328125 -1.484375q0.953125 0 2.046875 0.125q1.109375 0.109375 2.40625 0.375l0 -2.21875q0 -1.109375 -1.046875 -1.9375q-1.046875 -0.84375 -3.125 -0.84375q-1.59375 0 -4.484375 0.9375q-0.515625 0.15625 -0.65625 0.15625q-0.265625 0 -0.453125 -0.1875q-0.1875 -0.203125 -0.1875 -0.5q0 -0.265625 0.171875 -0.4375q0.21875 -0.234375 1.828125 -0.65625q2.546875 -0.6875 3.84375 -0.6875q2.59375 0 4.03125 1.28125q1.453125 1.265625 1.453125 2.875l0 9.0625l1.828125 0q0.5 0 0.703125 0.1875q0.21875 0.171875 0.21875 0.484375q0 0.296875 -0.21875 0.5q-0.203125 0.1875 -0.703125 0.1875l-3.203125 0zm0 -6.796875q-0.96875 -0.28125 -2.046875 -0.40625q-1.0625 -0.140625 -2.25 -0.140625q-2.984375 0 -4.65625 1.296875q-1.28125 0.953125 -1.28125 2.28125q0 1.25 0.96875 2.09375q0.96875 0.84375 2.828125 0.84375q1.78125 0 3.296875 -0.703125q1.515625 -0.71875 3.140625 -2.265625l0 -3.0zm11.640762 -7.296875l0 2.0625q1.4375 -1.4375 2.59375 -1.984375q1.15625 -0.5625 2.59375 -0.5625q1.5625 0 2.859375 0.671875q0.90625 0.484375 1.640625 1.625q0.75 1.125 0.75 2.3125l0 8.609375l1.15625 0q0.484375 0 0.6875 0.1875q0.21875 0.171875 0.21875 0.484375q0 0.296875 -0.21875 0.5q-0.203125 0.1875 -0.6875 0.1875l-3.671875 0q-0.5 0 -0.71875 -0.1875q-0.203125 -0.203125 -0.203125 -0.5q0 -0.3125 0.203125 -0.484375q0.21875 -0.1875 0.71875 -0.1875l1.140625 0l0 -8.390625q0 -1.453125 -1.0625 -2.453125q-1.046875 -1.0 -2.828125 -1.0q-1.34375 0 -2.34375 0.546875q-0.984375 0.546875 -2.828125 2.71875l0 8.578125l1.546875 0q0.484375 0 0.703125 0.1875q0.21875 0.171875 0.21875 0.484375q0 0.296875 -0.21875 0.5q-0.21875 0.1875 -0.703125 0.1875l-4.453125 0q-0.484375 0 -0.703125 -0.1875q-0.21875 -0.203125 -0.21875 -0.5q0 -0.3125 0.21875 -0.484375q0.21875 -0.1875 0.703125 -0.1875l1.546875 0l0 -11.34375l-1.15625 0q-0.484375 0 -0.703125 -0.1875q-0.21875 -0.203125 -0.21875 -0.515625q0 -0.296875 0.21875 -0.484375q0.21875 -0.203125 0.703125 -0.203125l2.515625 0zm31.125137 -6.328125l0 19.0625l1.8125 0q0.515625 0 0.71875 0.1875q0.21875 0.171875 0.21875 0.484375q0 0.296875 -0.21875 0.5q-0.203125 0.1875 -0.71875 0.1875l-3.203125 0l0 -2.71875q-2.375 3.25 -6.03125 3.25q-1.859375 0 -3.5625 -0.984375q-1.703125 -0.984375 -2.6875 -2.796875q-0.984375 -1.828125 -0.984375 -3.765625q0 -1.953125 0.984375 -3.765625q0.984375 -1.8125 2.6875 -2.796875q1.703125 -1.0 3.578125 -1.0q3.578125 0 6.015625 3.25l0 -7.71875l-1.828125 0q-0.5 0 -0.71875 -0.1875q-0.203125 -0.203125 -0.203125 -0.5q0 -0.296875 0.203125 -0.484375q0.21875 -0.203125 0.71875 -0.203125l3.21875 0zm-1.390625 13.40625q0 -2.609375 -1.765625 -4.390625q-1.75 -1.796875 -4.171875 -1.796875q-2.4375 0 -4.203125 1.796875q-1.75 1.78125 -1.75 4.390625q0 2.59375 1.75 4.390625q1.765625 1.796875 4.203125 1.796875q2.421875 0 4.171875 -1.796875q1.765625 -1.796875 1.765625 -4.390625zm40.390915 -5.6875l0 -0.46875q0 -0.5 0.1875 -0.703125q0.203125 -0.21875 0.5 -0.21875q0.3125 0 0.5 0.21875q0.203125 0.203125 0.203125 0.703125l0 3.09375q-0.015625 0.515625 -0.203125 0.734375q-0.1875 0.203125 -0.5 0.203125q-0.28125 0 -0.46875 -0.1875q-0.1875 -0.1875 -0.21875 -0.625q-0.09375 -1.15625 -1.515625 -2.203125q-1.421875 -1.046875 -3.8437653 -1.046875q-3.03125 0 -4.609375 1.90625q-1.578125 1.90625 -1.578125 4.359375q0 2.65625 1.734375 4.390625q1.734375 1.71875 4.515625 1.71875q1.59375 0 3.2343903 -0.578125q1.65625 -0.59375 2.984375 -1.890625q0.34375 -0.328125 0.609375 -0.328125q0.28125 0 0.46875 0.1875q0.1875 0.1875 0.1875 0.453125q0 0.703125 -1.65625 1.78125q-2.640625 1.734375 -5.9062653 1.734375q-3.296875 0 -5.421875 -2.09375q-2.125 -2.109375 -2.125 -5.359375q0 -3.296875 2.171875 -5.46875q2.171875 -2.1875 5.484375 -2.1875q3.1406403 0 5.2656403 1.875zm18.234497 12.703125l0 -1.96875q-2.984375 2.5 -6.375 2.5q-2.453125 0 -3.84375 -1.234375q-1.375 -1.25 -1.375 -3.0625q0 -1.984375 1.8125 -3.453125q1.828125 -1.484375 5.328125 -1.484375q0.953125 0 2.046875 0.125q1.109375 0.109375 2.40625 0.375l0 -2.21875q0 -1.109375 -1.046875 -1.9375q-1.046875 -0.84375 -3.125 -0.84375q-1.59375 0 -4.484375 0.9375q-0.515625 0.15625 -0.65625 0.15625q-0.265625 0 -0.453125 -0.1875q-0.1875 -0.203125 -0.1875 -0.5q0 -0.265625 0.171875 -0.4375q0.21875 -0.234375 1.828125 -0.65625q2.546875 -0.6875 3.84375 -0.6875q2.59375 0 4.03125 1.28125q1.453125 1.265625 1.453125 2.875l0 9.0625l1.828125 0q0.5 0 0.703125 0.1875q0.21875 0.171875 0.21875 0.484375q0 0.296875 -0.21875 0.5q-0.203125 0.1875 -0.703125 0.1875l-3.203125 0zm0 -6.796875q-0.96875 -0.28125 -2.046875 -0.40625q-1.0625 -0.140625 -2.25 -0.140625q-2.984375 0 -4.65625 1.296875q-1.28125 0.953125 -1.28125 2.28125q0 1.25 0.96875 2.09375q0.96875 0.84375 2.828125 0.84375q1.78125 0 3.296875 -0.703125q1.515625 -0.71875 3.140625 -2.265625l0 -3.0zm16.750153 -13.625l0 19.0625l5.375 0q0.5 0 0.703125 0.1875q0.21875 0.171875 0.21875 0.484375q0 0.296875 -0.21875 0.5q-0.203125 0.1875 -0.703125 0.1875l-12.109375 0q-0.484375 0 -0.703125 -0.1875q-0.203125 -0.203125 -0.203125 -0.5q0 -0.3125 0.203125 -0.484375q0.21875 -0.1875 0.703125 -0.1875l5.375 0l0 -17.6875l-3.9375 0q-0.5 0 -0.71875 -0.1875q-0.21875 -0.203125 -0.21875 -0.5q0 -0.296875 0.203125 -0.484375q0.21875 -0.203125 0.734375 -0.203125l5.296875 0zm20.000122 0l0 19.0625l5.375 0q0.5 0 0.703125 0.1875q0.21875 0.171875 0.21875 0.484375q0 0.296875 -0.21875 0.5q-0.203125 0.1875 -0.703125 0.1875l-12.109375 0q-0.484375 0 -0.703125 -0.1875q-0.203125 -0.203125 -0.203125 -0.5q0 -0.3125 0.203125 -0.484375q0.21875 -0.1875 0.703125 -0.1875l5.375 0l0 -17.6875l-3.9375 0q-0.5 0 -0.71875 -0.1875q-0.21875 -0.203125 -0.21875 -0.5q0 -0.296875 0.203125 -0.484375q0.21875 -0.203125 0.734375 -0.203125l5.296875 0zm23.828247 7.21875q0 -0.46875 0.1875 -0.671875q0.203125 -0.21875 0.5 -0.21875q0.3125 0 0.5 0.21875q0.203125 0.203125 0.203125 0.703125l0 2.34375q0 0.5 -0.203125 0.71875q-0.1875 0.203125 -0.5 0.203125q-0.28125 0 -0.46875 -0.171875q-0.1875 -0.1875 -0.21875 -0.59375q-0.09375 -0.984375 -1.015625 -1.609375q-1.328125 -0.921875 -3.53125 -0.921875q-2.28125 0 -3.5625 0.9375q-0.953125 0.6875 -0.953125 1.5625q0 0.96875 1.140625 1.625q0.78125 0.453125 2.953125 0.703125q2.859375 0.296875 3.953125 0.6875q1.578125 0.578125 2.34375 1.59375q0.78125 1.0 0.78125 2.171875q0 1.734375 -1.671875 3.09375q-1.671875 1.359375 -4.90625 1.359375q-3.25 0 -5.3125 -1.640625q0 0.5625 -0.0625 0.71875q-0.0625 0.15625 -0.234375 0.28125q-0.171875 0.109375 -0.390625 0.109375q-0.28125 0 -0.484375 -0.203125q-0.1875 -0.21875 -0.1875 -0.703125l0 -2.828125q0 -0.484375 0.1875 -0.6875q0.1875 -0.21875 0.484375 -0.21875q0.296875 0 0.5 0.203125q0.203125 0.203125 0.203125 0.546875q0 0.75 0.375 1.25q0.578125 0.78125 1.8125 1.296875q1.25 0.515625 3.046875 0.515625q2.671875 0 3.96875 -0.984375q1.3125 -1.0 1.3125 -2.109375q0 -1.265625 -1.3125 -2.03125q-1.34375 -0.765625 -3.890625 -1.015625q-2.546875 -0.265625 -3.65625 -0.6875q-1.09375 -0.4375 -1.71875 -1.28125q-0.625 -0.84375 -0.625 -1.8125q0 -1.765625 1.71875 -2.796875q1.734375 -1.03125 4.125 -1.03125q2.828125 0 4.609375 1.375zm30.98462 -7.21875l0 8.40625q1.296875 -1.40625 2.484375 -1.984375q1.203125 -0.578125 2.6875 -0.578125q1.59375 0 2.703125 0.5625q1.125 0.5625 1.875 1.734375q0.75 1.15625 0.75 2.4375l0 8.484375l1.53125 0q0.5 0 0.703125 0.1875q0.203125 0.171875 0.203125 0.484375q0 0.296875 -0.203125 0.5q-0.203125 0.1875 -0.703125 0.1875l-4.453125 0q-0.5 0 -0.71875 -0.1875q-0.203125 -0.203125 -0.203125 -0.5q0 -0.3125 0.203125 -0.484375q0.21875 -0.1875 0.71875 -0.1875l1.53125 0l0 -8.390625q0 -1.484375 -1.0625 -2.46875q-1.0625 -1.0 -2.96875 -1.0q-1.5 0 -2.5625 0.734375q-0.75 0.515625 -2.515625 2.453125l0 8.671875l1.546875 0q0.484375 0 0.6875 0.1875q0.21875 0.171875 0.21875 0.484375q0 0.296875 -0.21875 0.5q-0.203125 0.1875 -0.6875 0.1875l-4.453125 0q-0.5 0 -0.71875 -0.1875q-0.203125 -0.203125 -0.203125 -0.5q0 -0.3125 0.203125 -0.484375q0.21875 -0.1875 0.71875 -0.1875l1.546875 0l0 -17.6875l-1.84375 0q-0.484375 0 -0.703125 -0.1875q-0.203125 -0.203125 -0.203125 -0.5q0 -0.296875 0.203125 -0.484375q0.21875 -0.203125 0.703125 -0.203125l3.203125 0zm32.140747 13.40625q0 3.125 -2.234375 5.34375q-2.234375 2.203125 -5.390625 2.203125q-3.203125 0 -5.4375 -2.21875q-2.21875 -2.21875 -2.21875 -5.328125q0 -3.125 2.21875 -5.34375q2.234375 -2.21875 5.4375 -2.21875q3.15625 0 5.390625 2.21875q2.234375 2.203125 2.234375 5.34375zm-1.390625 0q0 -2.5625 -1.828125 -4.375q-1.828125 -1.8125 -4.4375 -1.8125q-2.59375 0 -4.421875 1.828125q-1.828125 1.8125 -1.828125 4.359375q0 2.546875 1.828125 4.375q1.828125 1.8125 4.421875 1.8125q2.609375 0 4.4375 -1.8125q1.828125 -1.8125 1.828125 -4.375zm7.531372 -7.078125l0 1.390625q1.734375 -1.875 3.5 -1.875q1.046875 0 1.84375 0.5625q0.796875 0.5625 1.34375 1.703125q0.90625 -1.140625 1.84375 -1.703125q0.9375 -0.5625 1.875 -0.5625q1.484375 0 2.359375 0.953125q1.15625 1.234375 1.15625 2.703125l0 9.5625l1.15625 0q0.484375 0 0.6875 0.1875q0.21875 0.171875 0.21875 0.484375q0 0.296875 -0.21875 0.5q-0.203125 0.1875 -0.6875 0.1875l-2.515625 0l0 -10.796875q0 -1.03125 -0.640625 -1.71875q-0.640625 -0.6875 -1.46875 -0.6875q-0.75 0 -1.578125 0.5625q-0.828125 0.5625 -1.890625 2.203125l0 9.078125l1.140625 0q0.5 0 0.703125 0.1875q0.21875 0.171875 0.21875 0.484375q0 0.296875 -0.21875 0.5q-0.203125 0.1875 -0.703125 0.1875l-2.515625 0l0 -10.6875q0 -1.09375 -0.640625 -1.796875q-0.640625 -0.71875 -1.4375 -0.71875q-0.734375 0 -1.453125 0.484375q-1.0 0.65625 -2.078125 2.28125l0 9.078125l1.15625 0q0.484375 0 0.6875 0.1875q0.21875 0.171875 0.21875 0.484375q0 0.296875 -0.21875 0.5q-0.203125 0.1875 -0.6875 0.1875l-3.6875 0q-0.484375 0 -0.703125 -0.1875q-0.203125 -0.203125 -0.203125 -0.5q0 -0.3125 0.203125 -0.484375q0.21875 -0.1875 0.703125 -0.1875l1.15625 0l0 -11.34375l-1.15625 0q-0.484375 0 -0.703125 -0.1875q-0.203125 -0.203125 -0.203125 -0.515625q0 -0.296875 0.203125 -0.484375q0.21875 -0.203125 0.703125 -0.203125l2.53125 0zm33.609497 7.375l-13.921875 0q0.359375 2.65625 2.21875 4.28125q1.859375 1.609375 4.609375 1.609375q1.53125 0 3.203125 -0.5q1.6875 -0.515625 2.734375 -1.34375q0.3125 -0.234375 0.546875 -0.234375q0.25 0 0.4375 0.203125q0.203125 0.203125 0.203125 0.46875q0 0.28125 -0.25 0.546875q-0.78125 0.8125 -2.78125 1.515625q-1.984375 0.703125 -4.09375 0.703125q-3.515625 0 -5.875 -2.296875q-2.34375 -2.296875 -2.34375 -5.578125q0 -2.96875 2.203125 -5.09375q2.21875 -2.140625 5.46875 -2.140625q3.34375 0 5.5 2.1875q2.171875 2.1875 2.140625 5.671875zm-1.375 -1.390625q-0.40625 -2.25 -2.140625 -3.671875q-1.734375 -1.421875 -4.125 -1.421875q-2.390625 0 -4.125 1.40625q-1.71875 1.390625 -2.140625 3.6875l12.53125 0zm10.500122 -12.3125l3.53125 0l-4.78125 7.765625q-0.390625 0.640625 -0.875 0.640625q-0.34375 0 -0.59375 -0.234375q-0.234375 -0.25 -0.234375 -0.578125q0 -0.203125 0.140625 -0.578125l2.8125 -7.015625zm7.03125 0l3.53125 0l-4.765625 7.765625q-0.40625 0.640625 -0.875 0.640625q-0.359375 0 -0.609375 -0.234375q-0.234375 -0.25 -0.234375 -0.578125q0 -0.203125 0.15625 -0.578125l2.796875 -7.015625z" fill-rule="nonzero"/></g></svg>